<?xml version="1.0" encoding="UTF-8" standalone="no"?>
<!-- Created with Inkscape (http://www.inkscape.org/) -->

<svg
   width="210mm"
   height="297mm"
   viewBox="0 0 210 297"
   version="1.1"
   id="svg5"
   inkscape:version="1.1 (c4e8f9e, 2021-05-24)"
   sodipodi:docname="new_logo.svg"
   xmlns:inkscape="http://www.inkscape.org/namespaces/inkscape"
   xmlns:sodipodi="http://sodipodi.sourceforge.net/DTD/sodipodi-0.dtd"
   xmlns="http://www.w3.org/2000/svg"
   xmlns:svg="http://www.w3.org/2000/svg">
  <sodipodi:namedview
     id="namedview7"
     pagecolor="#858585"
     bordercolor="#eeeeee"
     borderopacity="1"
     inkscape:pageshadow="0"
     inkscape:pageopacity="0"
     inkscape:pagecheckerboard="true"
     inkscape:document-units="mm"
     showgrid="false"
     showborder="false"
     inkscape:zoom="0.088388348"
     inkscape:cx="8830.3495"
     inkscape:cy="2641.7509"
     inkscape:window-width="1920"
     inkscape:window-height="991"
     inkscape:window-x="0"
     inkscape:window-y="0"
     inkscape:window-maximized="1"
     inkscape:current-layer="layer1"
     inkscape:snap-global="false"
     showguides="true"
     inkscape:guide-bbox="true" />
  <defs
     id="defs2" />
  <g
     inkscape:label="Layer 1"
     inkscape:groupmode="layer"
     id="layer1">
    <circle
       style="opacity:1;fill:#647687;stroke:none;stroke-width:5.29167;stroke-linecap:square;fill-opacity:1"
       id="path1114"
       cx="1494.0704"
       cy="713.54919"
       r="566.02173"
       inkscape:export-filename="/home/fo3cus/Dropbox/Code/covid_qr_generator/assets/new_logo.png"
       inkscape:export-xdpi="5.8299999"
       inkscape:export-ydpi="5.8299999" />
    <path
       id="path5711"
       style="fill:#000000;stroke-width:1"
       d="m -794.0791,-99.433784 c -25.1047,-0.0039 -25.71764,0.0169 -26.30433,0.895554 -0.10694,0.16012 -0.19644,14.569228 -0.19844,32.020265 V 3.0633147 c 0.002,17.4763103 0.0915,31.9041803 0.19844,32.0621303 0.10691,0.15796 0.43243,0.42252 0.72346,0.58756 0.38901,0.22061 13.32603,0.302 48.84612,0.308 l 48.31694,0.008 0.69712,-0.54827 0.69711,-0.5483 -0.003,-43.4386803 c -0.003,-47.2672897 0.081,-44.5573697 -1.48621,-47.7691797 -0.61405,-1.25845 -3.77236,-4.53592 -20.32279,-21.090702 -16.71879,-16.72319 -19.83203,-19.722583 -21.20749,-20.432344 -3.23808,-1.67095 -2.50054,-1.631043 -29.95683,-1.635043 z m 37.45715,14.018784 c 0.10981,0 5.08029,4.881565 11.04532,10.847915 l 10.84533,10.84792 h -11.04532 -11.0448 v -10.84792 c 0,-5.96635 0.0897,-10.847915 0.19947,-10.847915 z" />
    <path
       id="path5791"
       style="fill:#000000;stroke-width:1"
       d="m -734.91248,83.942247 c -1.75532,0.05077 -3.43477,0.562771 -4.94027,1.528072 -0.65485,0.419875 -22.58986,22.169191 -48.74432,48.331411 l -47.55317,47.56764 -6.25543,15.19856 c -3.44027,8.35924 -6.31559,15.65139 -6.38979,16.20469 -0.31931,2.38066 1.61687,5.47133 3.90312,6.23063 2.10927,0.70052 2.81191,0.47226 18.78542,-6.10402 l 15.21354,-6.26318 47.56764,-47.55834 c 26.16224,-26.1571 47.91665,-48.09806 48.34329,-48.75775 1.67421,-2.58869 1.96411,-5.95074 0.786,-9.11934 -0.54634,-1.46945 -1.12374,-2.12154 -7.76542,-8.767421 -6.6521,-6.656342 -7.29099,-7.222712 -8.76276,-7.768 -1.4116,-0.522991 -2.8226,-0.762439 -4.18785,-0.722952 z" />
    <path
       style="fill:#000000;stroke-width:1"
       d="m -885.06877,619.98803 v -31.75 h 31.75 31.75 v 31.75 31.75 h -31.75 -31.75 z m 49.38889,0 v -17.63889 h -17.63889 -17.63889 v 17.63889 17.63889 h 17.63889 17.63889 z m -24.69445,0 v -7.05556 h 7.05556 7.05556 v 7.05556 7.05556 h -7.05556 -7.05556 z m 65.61667,17.63889 v -14.11111 h -7.05556 -7.05555 v -7.05556 -7.05555 h 7.05555 7.05556 v -7.05556 -7.05555 h -7.05556 -7.05555 v -10.05417 -10.05417 h -20.46111 -20.46111 v -7.05555 -7.05556 h -10.58334 -10.58333 v 7.05556 7.05555 h -7.05555 -7.05556 v -14.11111 -14.11111 h 17.63889 17.63889 v 7.05556 7.05555 h 7.05555 7.05556 v -7.05555 -7.05556 h 7.05555 7.05556 v 7.05556 7.05555 h 6.35 6.35 V 540.78942 520.5047 h 7.05555 7.05556 v -7.05556 -7.05555 h -7.05556 -7.05555 v -7.05556 -7.05555 h 7.05555 7.05556 v -10.58334 -10.58333 h 7.05556 7.05555 v 10.58333 10.58334 h -7.05555 -7.05556 v 7.05555 7.05556 h 7.05556 7.05555 v 14.11111 14.11111 h -7.05555 -7.05556 v 13.22917 13.22916 h 7.05556 7.05555 v -7.05555 -7.05556 h 21.16667 21.16666 v 7.05556 7.05555 h 9.87778 9.87778 v -7.05555 -7.05556 h 7.05555 7.05556 v 7.05556 7.05555 h -7.05556 -7.05555 v 7.05556 7.05555 h 7.05555 7.05556 v 17.10973 17.10972 h -16.93333 -16.93334 v 7.05555 7.05556 h 7.05556 7.05555 v 7.05555 7.05556 h 9.87778 9.87778 v 7.05555 7.05556 h -9.87778 -9.87778 v -7.05556 -7.05555 h -7.05555 -7.05556 v 7.05555 7.05556 h -7.05555 -7.05556 v -7.05556 -7.05555 h 7.05556 7.05555 v -7.05556 -7.05555 h -14.11111 -14.11111 v -7.05556 -7.05555 h -14.11111 -14.11111 v 7.05555 7.05556 h 7.05556 7.05555 v 7.05555 7.05556 h 7.05556 7.05555 v 7.05555 7.05556 h -14.11111 -14.11111 z m 56.44444,-35.27778 v -7.05555 h 9.87778 9.87778 v -10.05417 -10.05417 h -9.87778 -9.87778 v -7.05555 -7.05556 h -21.16666 -21.16667 v 7.05556 7.05555 h -7.05555 -7.05556 v -7.05555 -7.05556 h -7.05556 -7.05555 v 7.05556 7.05555 h 7.05555 7.05556 v 10.05417 10.05417 h 7.05556 7.05555 v -10.05417 -10.05417 h 7.05556 7.05555 v 17.10973 17.10972 h 14.11111 14.11111 z m -14.11111,-20.10833 v -7.05556 h 7.05556 7.05555 v 7.05556 7.05555 h -7.05555 -7.05556 z m -132.64444,-79.375 v -31.75 h 31.75 31.75 v 31.75 31.75 h -31.75 -31.75 z m 49.38889,0 v -17.63889 h -17.63889 -17.63889 v 17.63889 17.63889 h 17.63889 17.63889 z m -24.69445,0 v -7.05556 h 7.05556 7.05556 v 7.05556 7.05556 h -7.05556 -7.05556 z m 92.42778,0 v -31.75 h 31.75 31.75 v 31.75 31.75 h -31.75 -31.75 z m 49.38889,0 v -17.63889 h -17.63889 -17.63889 v 17.63889 17.63889 h 17.63889 17.63889 z m -24.69445,0 v -7.05556 h 7.05556 7.05556 v 7.05556 7.05556 h -7.05556 -7.05556 z"
       id="path1566" />
    <path
       id="path5049"
       style="fill:#000000;stroke-width:1"
       d="m -818.6936,277.10603 -1.47123,0.6656 c -1.83268,0.82869 -3.76786,2.86119 -4.47879,4.70462 -0.52776,1.3685 -0.54106,3.01698 -0.54106,66.73753 0,63.58182 0.0145,65.3721 0.53796,66.72925 0.93339,2.42012 2.98049,4.27096 5.67097,5.12734 0.89212,0.28395 8.23175,0.34811 34.99528,0.30541 l 33.86666,-0.0543 1.47175,-0.66506 c 1.83268,-0.8287 3.76735,-2.8617 4.47828,-4.70514 0.52776,-1.3685 0.54105,-3.01696 0.54105,-66.73753 0,-63.72055 -0.0133,-65.36903 -0.54105,-66.73753 -0.71093,-1.84343 -2.6456,-3.87593 -4.47828,-4.70462 l -1.47175,-0.6656 h -34.28989 z m 21.28242,7.19646 h 13.00748 13.00799 l 0.69298,0.69299 c 0.89704,0.89704 0.9012,2.13706 0.0114,3.17189 l -0.68058,0.7922 -12.51293,0.0372 c -6.88215,0.0207 -12.79619,-0.0196 -13.14235,-0.0894 -0.86206,-0.17404 -1.76992,-1.40362 -1.76992,-2.39778 0,-0.49585 0.27483,-1.09596 0.69298,-1.51412 z m -7.55923,19.72128 c 9.73182,0 11.04755,0.0262 11.3311,0.22479 0.42612,0.29846 0.43519,1.0705 0.0171,1.44901 -0.2919,0.26422 -0.70699,0.27632 -10.60659,0.31368 l -10.30325,0.0393 -0.0388,10.30273 c -0.0373,9.8996 -0.0494,10.31521 -0.31367,10.6071 -0.37851,0.41819 -1.15054,0.40916 -1.44901,-0.0171 -0.19861,-0.28356 -0.22479,-1.59978 -0.22479,-11.33161 0,-10.81813 0.005,-11.0154 0.28835,-11.29905 0.28365,-0.28365 0.48145,-0.28887 11.29957,-0.28887 z m 42.35866,0 c 10.81812,0 11.01539,0.005 11.29905,0.28887 0.28364,0.28365 0.28887,0.48092 0.28887,11.29905 0,9.73183 -0.0262,11.04805 -0.22479,11.33161 -0.29847,0.42612 -1.0705,0.43524 -1.44901,0.0171 -0.26422,-0.29189 -0.2763,-0.70749 -0.31367,-10.6071 l -0.0393,-10.30273 -10.30273,-0.0393 c -9.8996,-0.0373 -10.31521,-0.0494 -10.60711,-0.31368 -0.41817,-0.37851 -0.4091,-1.15055 0.0171,-1.44901 0.28356,-0.19861 1.59979,-0.22479 11.33161,-0.22479 z m -57.4244,31.75672 h 36.24481 36.24482 l 0.3545,0.3545 c 0.44959,0.4496 0.44959,0.86247 0,1.31206 l -0.3545,0.3545 h -36.24482 -36.24481 l -0.35399,-0.3545 c -0.19487,-0.19487 -0.3545,-0.48978 -0.3545,-0.65577 0,-0.166 0.15963,-0.46141 0.3545,-0.65629 z m 4.39715,10.53321 c 0.27763,-0.003 0.56522,0.0989 0.75447,0.30799 0.26422,0.2919 0.27631,0.7075 0.31368,10.6071 l 0.0388,10.30325 10.30324,0.0388 c 9.89961,0.0373 10.31469,0.0494 10.60659,0.31366 0.41817,0.37851 0.4091,1.15054 -0.0171,1.44902 -0.28356,0.19862 -1.59927,0.22479 -11.33109,0.22479 -10.81814,0 -11.01592,-0.005 -11.29957,-0.28887 -0.28365,-0.28364 -0.28835,-0.48091 -0.28835,-11.29906 0,-9.73182 0.0262,-11.04804 0.22479,-11.3316 0.14923,-0.21306 0.4169,-0.32179 0.69453,-0.32504 z m 63.69585,0 c 0.27763,0.003 0.5453,0.11245 0.69453,0.32556 0.19861,0.28355 0.22479,1.59927 0.22479,11.33108 0,10.81815 -0.005,11.01593 -0.28887,11.29959 -0.28366,0.28365 -0.48093,0.28834 -11.29905,0.28834 -9.73182,0 -11.04805,-0.0262 -11.33161,-0.22479 -0.42613,-0.29845 -0.4352,-1.07051 -0.0171,-1.44902 0.2919,-0.26419 0.70751,-0.27628 10.60711,-0.31366 l 10.30273,-0.0388 0.0388,-10.30325 c 0.0373,-9.89961 0.0499,-10.3152 0.31419,-10.6071 0.18925,-0.20909 0.47684,-0.31126 0.75447,-0.30799 z m -32.46055,58.21555 c 2.92185,0 3.39822,0.0687 4.05453,0.585 0.59271,0.46622 0.74311,0.82558 0.74311,1.77146 0,0.6527 -0.19762,1.46939 -0.43925,1.81435 -0.41814,0.59696 -0.62843,0.62686 -4.35839,0.62686 -3.72996,0 -3.94026,-0.0299 -4.35839,-0.62686 -0.24163,-0.34496 -0.43925,-1.16165 -0.43925,-1.81435 0,-0.94588 0.15092,-1.30524 0.74362,-1.77146 0.65631,-0.51623 1.13217,-0.585 4.05402,-0.585 z" />
    <path
       id="path5894"
       style="fill:#000000;stroke-width:1"
       d="m -760.15641,-286.33718 c -0.5725,0.0178 -1.00522,0.1179 -1.61644,0.31057 -2.10658,0.66405 -3.4735,1.80458 -4.41059,3.67988 -1.39322,2.78807 -0.94974,5.83993 1.17099,8.05326 l 1.11414,1.16272 -0.54208,1.54616 -0.54157,1.54667 -2.52956,0.16588 c -1.3913,0.0912 -3.64765,0.35748 -5.01417,0.59222 -2.07563,0.35654 -2.51951,0.36819 -2.6975,0.0692 -0.11719,-0.19682 -1.09386,-1.60827 -2.1699,-3.13624 l -1.95647,-2.77813 0.65371,-0.85937 c 1.86653,-2.45469 1.80284,-5.47972 -0.16381,-7.77731 -1.17233,-1.36959 -2.67428,-2.06576 -4.47415,-2.07326 -1.08616,-0.005 -2.3969,0.37757 -5.95312,1.73426 -5.03227,1.91981 -5.97378,2.43978 -6.95203,3.83956 -1.32742,1.8994 -1.51234,3.88262 -0.55397,5.94073 1.06677,2.29085 3.03927,3.56102 5.52937,3.56102 h 1.40974 l 0.53485,3.69641 0.53485,3.69642 -2.19366,1.45986 c -2.37807,1.58257 -5.00244,3.70032 -7.12102,5.74642 l -1.34048,1.29501 -2.0991,-0.89401 c -1.72035,-0.7329 -2.11123,-1.00853 -2.17093,-1.53065 -0.46297,-4.05223 -2.6242,-6.32571 -6.01307,-6.32571 -2.44298,0 -3.69735,0.85364 -6.19135,4.21266 -2.66791,3.59324 -3.02201,4.30919 -3.02101,6.10609 0.002,4.23348 4.36003,7.05133 8.20519,5.30562 l 1.10949,-0.50385 1.50482,1.71411 1.50534,1.71462 -1.35393,2.85047 c -1.62343,3.41877 -3.01956,7.57321 -3.64939,10.85877 l -0.46198,2.40967 -0.94,0.24857 c -5.78958,1.5325 -7.13098,1.67843 -7.15408,0.77669 -0.0106,-0.41331 -2.06523,-2.21141 -3.02514,-2.64738 -1.49974,-0.68113 -3.89679,-0.65889 -5.36143,0.0501 -1.49698,0.72468 -2.91052,2.40948 -3.39721,4.04833 -0.46532,1.56692 -0.54799,9.77177 -0.11421,11.33368 1.0596,3.81527 5.66683,5.7006 9.21339,3.77031 1.44585,-0.78693 2.76103,-2.34287 3.09077,-3.65662 0.0969,-0.38615 0.21447,-0.70229 0.26097,-0.70229 0.23847,0 7.2388,1.56282 7.28534,1.73168 l 0.49713,1.80351 c 1.15356,4.47006 1.8823,6.45042 3.94084,11.544 l 0.80822,1.78852 -2.36574,2.66598 -2.36575,2.66599 -0.91984,-0.38395 c -1.49364,-0.62409 -3.78637,-0.49468 -5.38985,0.30437 -1.61098,0.80279 -2.58532,1.96372 -3.10989,3.70675 -0.72321,2.40305 -0.38969,3.77365 1.65313,6.79649 2.46143,3.64228 3.40001,4.43403 5.89059,4.96817 1.06319,0.22801 1.60944,0.20348 2.7249,-0.12299 2.64221,-0.77332 4.28195,-2.7582 4.64726,-5.62447 l 0.18759,-1.47174 3.32538,-1.37873 3.32538,-1.37924 1.93011,1.80816 c 2.39563,2.24406 5.77871,4.79808 8.37882,6.32519 1.94922,1.14485 1.97667,1.17535 1.84174,2.08773 -0.0753,0.50932 -0.26429,2.1762 -0.41961,3.70417 -0.40973,4.03073 -0.38767,3.96833 -1.38699,3.97133 -2.16017,0.007 -5.30138,2.48512 -5.9676,4.70876 -0.79931,2.66786 0.20281,6.04921 2.25775,7.61658 0.77201,0.58884 6.6821,2.97002 10.13064,4.08193 v 5.1e-4 c 1.89423,0.61074 4.14104,0.0866 5.51388,-1.28622 1.15348,-1.1535 1.63507,-2.56156 1.82521,-5.33559 0.11422,-1.66652 0.0411,-2.21497 -0.44545,-3.34605 -0.32009,-0.74408 -0.91863,-1.67537 -1.33015,-2.06964 l -0.74828,-0.71676 2.31717,-3.61373 c 1.69494,-2.64358 2.45143,-3.60621 2.81792,-3.58531 0.27554,0.0157 1.75059,0.18073 3.27783,0.36639 4.40518,0.53553 12.9646,0.0402 16.15871,-0.93483 0.29062,-0.0887 1.06176,0.77817 2.57968,2.9006 1.19084,1.66506 2.16473,3.19584 2.16473,3.40134 0,0.20549 -0.24095,0.59139 -0.53537,0.85783 -0.74691,0.67595 -1.41335,3.11865 -1.20561,4.41782 0.49509,3.0961 2.94717,5.2343 6.00325,5.2343 1.76787,0 10.39121,-3.34471 11.78998,-4.57285 1.4269,-1.25283 2.052,-2.68053 2.0531,-4.68756 10e-4,-1.96634 -0.41473,-2.93642 -1.86293,-4.34289 -1.13835,-1.10556 -2.39585,-1.57592 -4.23902,-1.58492 l -1.35857,-0.007 -0.56483,-3.4494 c -0.31058,-1.89697 -0.56235,-3.58573 -0.55965,-3.75326 0.003,-0.16753 0.43803,-0.56049 0.96738,-0.87281 1.69596,-1.00064 4.82629,-3.46427 7.00009,-5.50923 l 2.11202,-1.98696 2.20865,0.98392 2.20813,0.98392 0.29921,1.52239 c 0.87728,4.45911 4.9223,6.84155 9.17308,5.40329 1.6603,-0.56177 4.00636,-2.92902 5.12889,-5.1754 1.88612,-3.77447 0.442,-7.82861 -3.39566,-9.53378 -0.90842,-0.40363 -1.56428,-0.48883 -3.04271,-0.39688 -1.03657,0.0645 -2.07443,0.20132 -2.30684,0.30438 -0.31131,0.13804 -0.8138,-0.2908 -1.90892,-1.62936 l -1.48673,-1.81694 1.02009,-1.96629 c 0.56099,-1.08145 1.35451,-2.83328 1.7632,-3.89279 0.5396,-1.39889 0.89157,-1.95607 1.28571,-2.03502 0.29852,-0.0598 2.04452,-0.16185 3.87986,-0.22685 l 3.33675,-0.11834 0.59221,1.42833 c 1.56813,3.78339 6.29194,4.89998 9.34827,2.20969 0.64802,-0.57041 1.36103,-1.42699 1.5844,-1.90376 0.70787,-1.51089 2.38177,-10.5014 2.2009,-11.82099 -0.45112,-3.29125 -3.63586,-5.66204 -6.93963,-5.16661 -1.5846,0.23763 -3.51626,1.56488 -4.26951,2.93419 l -0.60564,1.10174 -3.43235,-1.4919 -3.43287,-1.4919 v -1.49965 c 0,-2.91506 -0.82625,-9.44653 -1.47226,-11.63546 -0.0848,-0.2875 0.33991,-0.73089 1.33119,-1.38906 0.80082,-0.53172 1.56194,-0.96687 1.69137,-0.96687 0.12943,0 0.7564,0.28852 1.39319,0.64079 4.47956,2.47805 10.00961,-0.82155 10.01851,-5.97741 0.004,-2.484 -2.07025,-7.80818 -3.61063,-9.2661 -1.85002,-1.75099 -5.36712,-2.34935 -7.63158,-1.29863 -2.0311,0.94243 -3.64083,3.07501 -3.99562,5.29373 -0.11839,0.74042 -0.30849,1.08785 -0.60203,1.09864 -0.23606,0.009 -1.00787,0.11065 -1.71514,0.22686 l -1.28622,0.21136 -0.69815,-1.2051 c -1.93949,-3.34071 -3.24826,-5.20954 -6.2637,-8.44238 -0.3805,-0.54323 -0.30857,-0.79292 1.14463,-3.96151 l 1.55081,-3.38171 1.61799,-0.0403 c 2.06837,-0.0518 3.30781,-0.46786 4.4912,-1.50689 1.28206,-1.12567 1.90699,-2.6018 1.91409,-4.52065 0.01,-2.67238 -0.55293,-3.45305 -5.11752,-7.09724 -2.19428,-1.75185 -4.4692,-3.4027 -5.0555,-3.66903 -1.46151,-0.6639 -3.64524,-0.63961 -5.08393,0.0568 -3.42562,1.65832 -4.48347,6.45448 -2.0407,9.25164 0.31482,0.36049 -0.01,0.71061 -2.59726,2.80137 l -2.95692,2.38952 -2.92489,-1.38544 c -1.60866,-0.76181 -4.35363,-1.83454 -6.09988,-2.38435 -1.74625,-0.54981 -3.20163,-1.01574 -3.23443,-1.03508 -0.0328,-0.0193 -0.13573,-0.8616 -0.22893,-1.87172 l -0.1695,-1.83658 1.06712,-0.85473 c 3.185,-2.55156 3.39454,-7.55931 0.44028,-10.51357 -1.38987,-1.38987 -2.80221,-1.94021 -5.91385,-2.30529 -1.17033,-0.13731 -1.88265,-0.20227 -2.45514,-0.18448 z" />
    <g
       id="g10422">
      <path
         id="path6127"
         style="fill:#ffffff;stroke-width:1;fill-opacity:1"
         d="m 158.58323,-940.47252 c -0.13747,3.4e-4 -0.27515,0.002 -0.41341,0.004 -7.74237,0.13799 -16.69157,3.55409 -21.97437,8.61239 -14.37546,13.76534 -11.91869,39.33217 4.73822,49.31792 2.14671,1.28692 1.094,3.55177 -8.41396,18.11931 l -10.86652,16.64911 -16.78347,-2.1854 c -9.230428,-1.20112 -24.615356,-2.12053 -34.189127,-2.04535 -9.573799,0.0752 -17.565309,0.0997 -17.759637,0.0563 -0.19427,-0.0432 -2.062006,-4.06867 -4.151686,-8.94468 l -3.799768,-8.86509 3.934126,-5.97069 c 11.740402,-17.82249 4.721839,-43.07697 -14.732949,-53.02105 -9.15276,-4.67834 -17.065797,-5.14294 -33.1359615,-1.95079 -6.044208,1.20062 -9.693045,2.0239 -12.5129315,3.03392 l 5.16e-4,0.002 c -2.819921,1.01011 -4.812112,2.20455 -7.543207,4.14704 -9.412772,6.69497 -14.378207,14.57001 -16.022278,25.4093 -2.444374,16.11513 4.674775,30.58661 18.78955,38.18578 l 7.4150505,3.992 -0.208257,8.56537 -0.205155,8.56796 -12.3191425,4.89685 c -6.775862,2.69331 -17.573923,7.6503 -23.995435,11.01794 -9.753753,5.11508 -11.943934,5.88719 -13.310814,4.68602 -0.899911,-0.79068 -8.031496,-6.2413 -15.845029,-12.11193 l -14.206371,-10.67376 1.86914,-5.32836 c 5.336039,-15.21821 0.15019,-30.1674 -13.333554,-38.43383 -8.03771,-4.92758 -16.63183,-5.97388 -25.59947,-3.11402 -5.41242,1.72351 -11.31806,5.73706 -26.82886,18.21181 -21.94871,17.65259 -25.79638,21.75528 -28.41066,30.29479 -3.54744,11.58748 -1.27561,21.75301 6.80578,30.45085 8.99539,9.6814 20.85455,12.82628 33.24448,8.81807 l 7.01456,-2.26912 8.61136,17.53124 8.61085,17.53123 -8.56486,10.79468 c -9.28511,11.70225 -18.93453,26.464 -26.18238,40.05492 l -4.58525,8.60103 -11.88351,-1.06919 c -9.73962,-0.8775 -12.12786,-1.61991 -13.26534,-4.12171 -8.82629,-19.41736 -23.2395,-27.25049 -40.10143,-21.79557 -12.15548,3.93236 -17.02293,10.19891 -24.0254,30.9268 -7.49077,22.17322 -8.10016,26.30569 -5.20279,35.24487 6.82445,21.0612 33.04422,28.06693 49.3665,13.19145 l 4.70979,-4.29328 10.2464,6.1066 10.25002,6.10867 -2.14819,16.36231 c -2.57462,19.62384 -2.83434,42.54215 -0.67954,59.90384 l 1.58026,12.73359 -4.27725,2.7497 c -26.34028,16.94447 -32.7798,19.83005 -34.34623,15.38046 -0.71809,-2.03941 -13.83559,-7.67925 -19.31355,-8.30337 -8.55861,-0.97501 -20.44944,2.99428 -26.59579,8.87956 -6.282,6.0154 -10.60335,16.67357 -10.38696,25.61135 0.20691,8.5455 13.00241,49.50299 17.67489,56.57641 11.41351,17.27795 37.37212,19.24269 51.91156,3.92946 5.92739,-6.24282 9.96697,-16.10157 9.49296,-23.16913 -0.13943,-2.07734 -0.0634,-3.83964 0.16795,-3.91449 1.18654,-0.38385 38.53351,-3.87568 39.03689,-3.1104 l 5.37693,8.17314 c 12.93501,20.38474 19.74837,29.06586 38.18992,51.0961 l 6.90035,7.59798 -7.47965,17.07338 -7.48016,17.07287 -5.19451,-0.42944 c -8.43645,-0.70101 -19.63591,3.6332 -26.32811,10.19008 -6.7235,6.58757 -9.70302,13.93209 -9.50743,23.44923 0.26962,13.1209 4.1351,19.4038 19.16523,31.15622 18.11012,14.16076 24.05467,16.58961 37.30677,15.23836 5.657114,-0.57687 8.335764,-1.57824 13.360434,-4.99816 11.902001,-8.10062 16.865991,-20.61636 14.069939,-35.46605 l -1.435571,-7.62484 14.326773,-12.21269 14.32574,-12.21582 12.513966,5.89011 c 15.53205,7.30956 36.4763365,14.57232 51.871768,17.98544 11.541501,2.55884 11.727051,2.66592 12.524301,7.42281 0.445159,2.65541 2.188009,11.25363 3.874699,19.10633 4.4494,20.71513 4.458962,20.36948 -0.508498,21.99299 -10.73704,3.51173 -22.3777783,20.89816 -22.1133776,33.03465 0.3172306,14.56103 10.7460046,29.77259 23.4936566,34.26355 4.789098,1.68722 38.028789,4.02182 56.977401,4.00338 l 0.001,0.003 c 10.408159,-0.0102 20.743819,-6.23451 25.364859,-15.27504 3.88261,-7.59616 4.01216,-15.37731 0.49299,-29.48606 -2.1142,-8.47593 -3.36055,-11.08713 -7.60212,-15.93183 -2.79037,-3.18707 -7.26755,-6.85779 -9.949775,-8.15713 l -4.877221,-2.36162 5.712828,-21.71081 c 4.178218,-15.88188 6.392458,-21.88946 8.249628,-22.37539 0.77763,-0.20352 5.80452,-1.19097 9.41182,-1.92289 46.5573,85.89563 60.48943,111.21295 63.08711,113.43029 5.76897,4.92456 13.60961,6.8353 21.72065,5.2927 2.68946,-0.51152 21.65426,-10.56296 90.42185,-47.92522 l 87.01794,-47.27877 2.85927,-3.75896 c 3.55958,-4.68207 5.70527,-12.60348 4.96766,-18.33375 -0.48903,-3.79888 -11.0839,-23.65962 -74.64041,-141.13247 l 2.189,0.23357 12.57081,1.34152 3.9393,7.09311 c 11.54271,20.77497 35.50393,26.11829 54.33933,12.11967 7.35684,-5.4677 15.21968,-21.02256 17.18913,-34.00671 3.30909,-21.81655 -10.40175,-39.66404 -32.24146,-41.97108 -5.16948,-0.54609 -8.57017,0.0856 -15.77835,2.92282 -5.05383,1.98944 -9.99797,4.34069 -10.98849,5.22759 -1.32678,1.18794 -4.51712,-0.13684 -12.12069,-5.03432 l -10.32238,-6.64714 1.91101,-11.42566 c 1.05055,-6.28396 2.17876,-16.27781 2.50682,-22.20743 0.43315,-7.82899 1.28773,-11.16786 3.12176,-12.19512 1.38909,-0.77806 9.91198,-4.09653 18.93941,-7.37422 l 16.41245,-5.95985 5.24568,6.15363 c 13.89245,16.30078 39.19397,14.25268 50.07083,-4.05298 2.30619,-3.88126 4.47485,-9.29072 4.81883,-12.02252 1.09011,-8.65713 -5.05248,-56.08531 -8.07651,-62.36002 -7.5424,-15.65005 -27.20493,-22.32013 -42.84596,-14.5371 -7.50195,3.73304 -14.97664,13.44636 -16.52045,21.47208 l -1.24021,6.45645 -19.47995,-1.89807 -19.48204,-1.89756 -2.41379,-7.46156 c -4.69225,-14.5044 -19.31699,-45.67322 -26.05474,-55.52478 -0.88471,-1.29401 0.51499,-4.18377 4.38785,-9.05423 3.12873,-3.93471 6.21498,-7.32505 6.85901,-7.53339 0.64399,-0.20833 4.22836,0.21843 7.96385,0.9462 26.27767,5.11942 48.48188,-20.2003 40.22701,-45.86852 -3.97851,-12.36601 -22.8695,-35.51849 -32.8807,-40.29315 -12.02359,-5.73446 -30.48674,-3.05015 -40.06265,5.8229 -8.58911,7.9586 -13.16559,21.16092 -11.35951,32.77165 0.60274,3.87465 0.21587,5.90908 -1.22733,6.43526 -1.16006,0.42476 -4.83639,2.173 -8.1685,3.88969 l -6.05957,3.12177 -5.41361,-4.87205 c -15.0277,-13.50038 -24.54781,-20.69241 -44.75541,-31.92415 -2.76765,-2.09047 -2.81191,-3.44869 -0.68162,-21.55372 l 2.27325,-19.32286 7.98554,-2.80499 c 10.20819,-3.5871 15.70559,-7.65202 19.92128,-14.72675 4.56718,-7.66465 5.30024,-16.01565 2.24689,-25.57467 -4.25185,-13.313 -8.30934,-16.29097 -36.88715,-27.07586 -13.73791,-5.1846 -27.71419,-9.73682 -31.06012,-10.11825 -0.78194,-0.0891 -1.58584,-0.13781 -2.40554,-0.14831 -0.13662,-0.002 -0.27387,-0.002 -0.41135,-0.002 z m -230.708904,186.66251 h 54.587883 54.58788 v 54.58788 54.58737 h -54.58788 -54.587883 v -54.58737 z m 155.272174,0 h 12.130524 12.130526 v 18.19579 18.19578 H 95.277024 83.1465 v 12.13001 12.13105 h 12.130524 12.130526 v 24.26105 10.68306 5.2e-4 l -17.109031,9.2599 -31.413069,17.00258 v -2.07067 -34.87539 H 71.015974 83.1465 v -12.13001 -12.13104 H 71.015974 58.88545 v -12.13105 -12.13001 H 71.015974 83.1465 v -18.19578 z m 46.09641,0 h 54.58787 54.58788 v 54.58788 54.58737 h -10.28928 c -3.85955,-7.07985 -6.12063,-11.15789 -8.79843,-16.01918 -1.07772,-1.9581 -3.09697,-5.65243 -4.02611,-7.3303 -0.3004,-0.54202 -0.85883,-1.56999 -1.14773,-2.09032 v -29.14757 -30.32683 h -30.32633 -30.32682 v 30.32683 16.05948 l -24.26105,13.13098 v -29.19046 z m -177.107015,24.26105 v 30.32683 30.3258 h 30.326314 30.326829 v -30.3258 -30.32683 h -30.326829 z m 18.195787,18.19579 h 12.130527 12.1305235 v 12.13104 12.13053 H -17.537791 -29.668318 v -12.13053 z m 201.368588,0 h 12.13051 12.13053 v 12.13104 4.80798 c -0.25881,-0.11752 -0.55215,-0.17387 -0.81647,-0.28474 -1.09255,-0.45872 -2.19951,-0.83576 -3.35071,-1.16892 -0.49885,-0.14475 -0.96769,-0.3098 -1.46968,-0.4284 -1.64299,-0.38824 -3.28404,-0.67122 -4.85191,-0.74414 -0.78343,-0.0364 -1.54715,-0.0303 -2.28047,0.0222 l -4.71135,0.33693 -6.78045,3.67006 v -6.21099 z m -37.93257,62.80133 2.7466,0.81752 c 3.55549,1.0583 5.29208,4.24183 4.44417,8.14163 l -0.6475,2.98431 -32.12724,17.51262 c -17.669822,9.63255 -32.935105,17.76067 -33.922475,18.06298 -2.459191,0.75234 -6.505136,-1.14596 -7.888925,-3.70261 -0.690171,-1.27516 -0.818861,-3.20124 -0.325562,-4.85862 l 0.817523,-2.7466 33.451189,-18.10536 z m 79.05149,23.4363 c 0.17603,-0.004 0.30694,0.0279 0.44751,0.0698 1.12427,0.33466 1.41246,0.83442 16.47032,28.6551 13.54584,25.02707 15.31046,28.44837 15.19444,29.45401 -0.17447,1.51129 -2.1472,2.60933 -3.70264,2.06086 -1.08577,-0.38288 -1.69513,-1.43472 -15.57062,-26.84126 l -14.44149,-26.44024 -26.55033,14.23944 c -25.51039,13.68344 -26.59605,14.23062 -27.71457,13.95729 -1.60225,-0.39135 -2.65311,-2.3894 -1.97249,-3.75016 0.45278,-0.90545 3.80111,-2.80511 28.82823,-16.35094 24.34296,-13.17564 27.77953,-15.02252 29.01164,-15.05386 z m -284.944864,1.70894 h 30.32683 30.326313 v 12.13104 12.13104 H 0.5360385 l -1.276924,1.68 c -3.55958,4.68205 -5.707343,12.60247 -4.969722,18.33273 0.103714,0.8057 0.475747,1.96313 1.277959,3.85351 0.08415,0.19732 0.03322,0.17464 0.130741,0.39481 h -7.1706235 v -12.13052 -12.13053 h -18.195787 -18.195787 v 12.13053 12.13052 h -12.130527 -12.131042 v -24.26105 z m 84.914712,0 h 12.130527 12.130524 v 3.27422 l -14.781009,8.00054 -9.480042,5.13147 v -4.27519 z m 91.436792,57.10555 c 0.0367,-3.5e-4 0.0704,0.002 0.10181,0.005 1.51128,0.17442 2.60919,2.14727 2.06085,3.70262 -0.3829,1.08578 -1.4337,1.69466 -26.84022,15.57011 l -26.441796,14.44252 14.240473,26.54929 c 13.68345,25.51044 14.231135,26.59558 13.957805,27.71407 -0.391311,1.6023 -2.389278,2.65375 -3.750159,1.97301 -0.905449,-0.45278 -2.805089,-3.80114 -16.350941,-28.82822 -15.057866,-27.82068 -15.319517,-28.33481 -14.985647,-29.45867 0.334639,-1.12427 0.83599,-1.41296 28.65665,-16.47082 24.24495,-13.12253 28.212625,-15.18829 29.351175,-15.19908 z m -176.351504,13.85911 h 54.587883 24.7127014 c 6.1882096,11.6543 16.0957286,30.06434 29.8751786,55.578 v 53.59776 h -54.58788 -54.587883 v -54.58788 z m 338.878534,3.07888 1.40507,0.41806 c 1.782,0.53043 2.35664,1.59249 1.82626,3.37447 l -0.41857,1.40508 -93.20982,50.44964 -93.2093,50.4491 -1.404048,-0.41857 c -0.77238,-0.2299 -1.593138,-0.76634 -1.824178,-1.19322 -0.23106,-0.4268 -0.231799,-1.40885 -0.0021,-2.18125 l 0.417031,-1.40404 93.209805,-50.44964 z m -314.616965,21.18217 v 30.32683 30.32683 h 30.326314 30.326829 v -30.32683 -30.32683 h -30.326829 z m 319.249235,11.68507 c 0.33534,-0.004 0.6635,0.0619 0.96118,0.21084 0.90543,0.45275 2.80411,3.80016 16.3499,28.82718 15.05791,27.82074 15.32088,28.33612 14.98566,29.46073 -0.33465,1.12429 -0.83548,1.41089 -28.65612,16.46878 -25.02707,13.54582 -28.4489,15.31043 -29.45456,15.19441 -1.51122,-0.17439 -2.60921,-2.14725 -2.06084,-3.70261 0.38293,-1.08571 1.43529,-1.69513 26.84177,-15.57064 l 26.44129,-14.44046 -14.24151,-26.55031 c -13.68346,-25.51047 -14.22961,-26.59707 -13.95627,-27.71562 0.19566,-0.80113 0.79301,-1.46424 1.51154,-1.84227 v 5.2e-4 c 0.35912,-0.18926 0.7488,-0.30675 1.13379,-0.33435 0.0481,-0.003 0.0963,-0.006 0.14417,-0.006 z m -301.053448,6.51071 h 12.130527 12.1305235 v 12.13105 12.13001 H -17.537791 -29.668318 v -12.13001 z m 137.435538,82.08749 c 0.30638,-0.005 0.61269,0.0403 0.90433,0.14317 1.0858,0.38287 1.69516,1.43473 15.57063,26.84123 l 14.44098,26.44283 26.55083,-14.24149 c 25.51046,-13.68348 26.59456,-14.23008 27.71303,-13.95677 1.60227,0.39135 2.65354,2.38932 1.97303,3.75015 -0.45278,0.90546 -3.80013,2.80408 -28.8272,16.3499 -27.8207,15.05789 -28.33614,15.32036 -29.46073,14.98513 -1.12426,-0.33459 -1.41085,-0.83539 -16.46876,-28.65612 -13.54583,-25.02704 -15.31045,-28.44837 -15.19442,-29.45402 0.0872,-0.75563 0.62432,-1.40767 1.33377,-1.80248 l -5.2e-4,-5e-4 c 0.35485,-0.19719 0.7528,-0.33031 1.15911,-0.37984 0.10157,-0.0124 0.20379,-0.0196 0.30592,-0.0212 z m 169.41911,102.39687 c 0.57963,-0.0509 1.11353,-0.004 1.71514,0.0997 2.17318,0.37396 3.06041,1.08874 4.377,3.52124 0.9085,1.67851 1.53702,4.05373 1.39578,5.27719 -0.24442,2.1172 -0.74358,2.48682 -10.33581,7.6786 -9.59223,5.19176 -10.17469,5.40774 -12.0809,4.4545 -1.10157,-0.55078 -2.74659,-2.37598 -3.65509,-4.05452 -1.31657,-2.4325 -1.42875,-3.56693 -0.55346,-5.59086 0.96928,-2.2411 2.09728,-3.07991 9.61131,-7.14687 5.63552,-3.0502 7.78714,-4.08633 9.52603,-4.239 z" />
      <path
         style="color:#000000;fill:#ffffff;stroke-linecap:square;stroke-linejoin:round;-inkscape-stroke:none"
         d="m 75.988281,-1070.1582 c -128.588136,0 -251.937741,51.094 -342.863281,142.01953 -90.92554,90.92554 -142.01758,214.27514 -142.01758,342.86328 0,128.58814 51.09204,251.93578 142.01758,342.86133 90.92554,90.92554 214.275145,142.01953 342.863281,142.01953 128.588139,0 251.935789,-51.09399 342.861329,-142.01953 90.92554,-90.92555 142.01953,-214.27515 142.01953,-342.86328 0,-128.58814 -51.09399,-251.93579 -142.01953,-342.86133 -90.92554,-90.92553 -214.27319,-142.01953 -342.861329,-142.01953 z m 0,52.918 c 114.574109,0 224.427229,45.50337 305.443359,126.5195 81.01613,81.01612 126.51953,190.86925 126.51953,305.44336 0,114.5741 -45.5034,224.42918 -126.51953,305.44531 -81.01613,81.01613 -190.86925,126.51953 -305.443359,126.51953 -114.574107,0 -224.429181,-45.5034 -305.445311,-126.51953 -81.01613,-81.01613 -126.51953,-190.87121 -126.51953,-305.44531 0,-114.57411 45.5034,-224.42724 126.51953,-305.44336 81.01613,-81.01613 190.871204,-126.5195 305.445311,-126.5195 z"
         id="path7091" />
    </g>
    <g
       id="g10432"
       style="fill:#ffffff">
      <path
         id="path5919"
         style="fill:#ffffff;stroke-width:0.999997"
         d="m 1124.54,-1201.2792 c -4.133,0.051 -8.9409,0.4358 -14.6708,1.1013 -24.5178,2.8474 -28.7326,4.1281 -35.9509,10.9183 -17.0074,15.9968 -11.8749,44.1545 9.6633,53.0162 l 6.2151,2.5563 -1.206,12.5217 -1.2065,12.5261 -16.5696,5.3232 c -19.8719,6.3865 -41.8426,16.4651 -57.4267,26.342 l -11.4297,7.2439 -4.54903,-2.8393 c -28.02462,-17.482 -33.67737,-22.3225 -30.14033,-25.8209 1.62118,-1.6035 1.089,-16.6521 -0.78398,-22.1567 -2.92636,-8.6002 -12.06858,-18.1507 -20.44974,-21.3597 -8.56622,-3.2798 -20.67623,-2.5982 -29.10124,1.635 -8.05513,4.0475 -41.34443,34.702 -45.98384,42.3442 -11.33273,18.6678 -1.51055,44.3056 19.64177,51.27 8.62334,2.8392 19.84377,2.2488 26.36935,-1.3875 1.91794,-1.0689 3.63301,-1.7902 3.80862,-1.6034 0.90062,0.9585 21.05682,34.9969 20.55388,35.8217 l -5.37113,8.809 c -13.60962,21.51832 -18.81692,31.92645 -31.51472,59.43679 l -4.13631,10.00298 -19.64997,0.5599 -19.64942,0.56044 -1.93104,-5.14705 c -3.1326,-8.3602 -12.31148,-17.08649 -21.5788,-20.51352 -9.3107,-3.44306 -17.65629,-2.97466 -26.64301,1.49979 -12.38969,6.16868 -16.63899,12.68508 -21.07343,32.31181 -5.34321,23.64862 -4.98093,30.41111 2.27832,42.43852 3.09883,5.13433 5.26045,7.23735 10.78529,10.48766 13.08686,7.69909 27.25715,6.79371 40.15697,-2.5629 l 6.62395,-4.80469 18.10002,8.15864 18.10275,8.15646 0.0218,14.58632 c 0.0281,18.10362 2.53922,41.3468 6.22107,57.5646 2.76018,12.15806 2.74172,12.38347 -1.43492,15.28687 -2.33156,1.62082 -9.74481,7.15626 -16.47266,12.30257 -17.74782,13.57587 -17.41376,13.42919 -21.1999,9.42401 -8.18427,-8.65772 -30.00985,-11.92221 -41.46323,-6.20199 -13.74143,6.86295 -23.54693,23.66071 -22.08582,37.8394 0.54895,5.32668 13.29869,38.07374 21.85358,56.13349 l -0.003,0.002 c 4.69915,9.91992 15.29129,16.97099 25.99372,17.30406 8.99247,0.27976 16.4704,-3.10275 28.33794,-12.81504 7.12948,-5.83479 9.0577,-8.19976 11.76612,-14.42713 1.78176,-4.09666 3.26461,-10.0193 3.29508,-13.16231 l 0.0545,-5.71459 23.27544,-4.33474 c 17.02636,-3.1715 23.75259,-3.76646 25.0527,-2.21452 0.97732,1.16692 5.88474,7.71847 10.90637,14.55797 14.48439,19.7279 48.80129,52.25985 64.78328,61.41521 1.4542,0.83301 0.8821,7.20605 -1.9157,21.32258 -2.1949,11.0746 -4.66951,20.77055 -5.49546,21.54665 -0.82592,0.77608 -3.28698,1.26474 -5.4698,1.08765 -5.53761,-0.44918 -17.87228,6.09769 -22.30936,11.83916 -10.57415,13.68272 -9.90732,31.61325 1.63446,43.89634 6.6766,7.10544 52.68686,29.13263 62.90576,30.11636 10.4243,1.00349 18.5236,-1.87584 26.5945,-9.45127 7.9067,-7.42233 10.2359,-12.75636 10.4195,-23.88874 0.1446,-8.75093 -2.714,-15.58145 -9.6388,-23.02355 l -5.1046,-5.48562 11.7312,-15.29724 c 6.4514,-8.41246 12.288,-15.80226 12.9715,-16.42413 0.6836,-0.62183 3.9071,-0.35653 7.1615,0.59153 1.7044,0.49647 3.7937,0.99708 6.0292,1.49543 l -32.2519,-55.87174 c -69.42387,-120.26328 -65.65729,-113.24537 -66.3878,-123.71906 -0.28627,-4.10378 2.935,-17.08164 20.7256,-83.51194 17.9715,-67.10609 21.4864,-79.31065 23.9433,-83.13687 5.7839,-9.00775 3.9661,-7.82242 73.8153,-48.16348 v -9.4e-4 c 63.8663,-36.88673 65.4565,-37.73413 68.2398,-36.36033 0.5073,0.2503 21.9007,36.7788 47.5398,81.17532 l 30.25,52.39409 c -6.1164,8.16447 -21.8902,29.61204 -40.1488,54.6168 l -41.846,57.30726 -4.0523,16.85919 c -2.2288,9.27247 -4.0419,17.34056 -4.0294,17.92938 0.054,2.53349 2.5734,5.44099 5.08,5.86123 2.3125,0.38772 3.008,0.0361 18.5912,-9.41309 l 14.842,-8.99931 41.8623,-57.30018 c 11.7672,-16.10662 22.4129,-30.74232 30.1529,-41.43758 l 51.5071,89.21344 c 16.3852,28.38755 30.1614,52.47712 38.4728,67.1925 3.0637,-4.10263 5.5905,-7.72698 7.1146,-10.33117 0.8352,-1.42685 4.2214,-1.39383 10.6104,0.10465 5.1615,1.2106 9.7851,2.62603 10.2739,3.14623 0.4889,0.52022 1.6971,4.12981 2.6861,8.01961 6.9579,27.36307 41.105,37.12834 61.8612,17.69222 9.9999,-9.36396 23.564,-37.80959 23.6063,-49.5068 0.051,-14.04849 -10.8274,-30.44426 -23.6024,-35.57744 -11.4587,-4.60422 -26.1089,-3.01985 -36.3664,3.93347 -3.423,2.32046 -5.5374,2.86837 -6.6894,1.72932 -0.9265,-0.91591 -4.2512,-3.63298 -7.3893,-6.03679 l -5.707,-4.37127 2.2068,-7.35721 c 6.1024,-20.4119 8.6704,-32.7302 10.2756,-57.05921 0.7464,-3.58092 2.0218,-4.23475 20.2454,-10.36063 l 19.4487,-6.53889 6.2724,6.35135 c 8.0196,8.11759 14.3733,11.52758 23.0186,12.35982 9.3662,0.90164 17.6593,-2.1616 25.3984,-9.37986 10.7782,-10.05288 11.7902,-15.263 9.1983,-47.37189 -1.2459,-15.43546 -3.2024,-30.81347 -4.3462,-34.17576 -2.8513,-8.38145 -11.1962,-17.06683 -19.4286,-20.21915 -19.6026,-7.50545 -42.8744,6.35649 -44.8913,26.73842 -0.26,2.62677 -2.8935,2.64419 -21.0686,0.14066 l -20.7714,-2.86003 -5.4774,-16.98838 c -3.0135,-9.34268 -9.0689,-24.42656 -13.4541,-33.52156 -4.385,-9.09501 -8.0088,-16.70392 -8.0549,-16.90879 -0.046,-0.20469 2.9503,-3.79962 6.6582,-7.98909 l 6.7412,-7.61728 7.4657,1.06093 c 22.2839,3.1649 43.2026,-14.90543 43.9193,-37.93643 0.3372,-10.8353 -2.7849,-18.5902 -13.0691,-32.4754 -3.868,-5.2223 -6.2974,-8.3307 -8.531,-10.5645 -2.2337,-2.2337 -4.2701,-3.5947 -7.3529,-5.3237 -10.6248,-5.9589 -20.3714,-7.1453 -31.4476,-3.8293 -16.4677,4.9299 -27.0588,18.2379 -27.9456,35.1205 l -0.4655,8.8691 -8.2616,3.6608 -8.2618,3.6642 -10.2199,-9.5401 c -5.6211,-5.2475 -15.2123,-13.311 -21.3166,-17.9169 -9.272,-6.9959 -10.9953,-8.7357 -10.4658,-10.5803 0.3485,-1.2143 2.333,-10.4704 4.4105,-20.5659 l 3.777,-18.3551 5.9228,-0.6183 c 16.9152,-1.7684 28.8325,-13.4492 30.6397,-30.0307 1.0773,-9.8843 -1.7968,-18.5503 -8.5642,-25.8127 -4.0819,-4.3845 -10.5695,-8.2076 -29.4529,-17.3771 -26.7212,-12.9754 -32.3673,-14.7956 -41.6878,-13.4409 -12.6473,1.8382 -21.3166,8.5846 -25.9691,20.2093 -5.1787,12.9393 -2.8343,25.664 6.5699,35.6723 l 5.3243,5.6661 -12.8369,16.1101 -12.8368,16.1095 -14.1524,-3.3032 c -15.3418,-3.5812 -33.765,-6.1313 -49.9898,-6.9189 l -10.2674,-0.4972 -4.3342,-11.813 c -3.5514,-9.6824 -3.9197,-12.2944 -2.0466,-14.5062 14.5383,-17.1646 15.5136,-34.4371 2.715,-48.0577 -6.9197,-7.3642 -13.2441,-10.2276 -25.6431,-10.076 z m -85.1633,309.00165 c -0.2794,0.1613 -5.755,19.88251 -12.1674,43.82439 l -11.6581,43.53053 28.1019,-16.22459 28.1003,-16.22404 -15.9346,-27.5998 c -8.764,-15.17976 -16.1628,-27.46774 -16.4421,-27.30649 z" />
      <path
         style="color:#000000;fill:#ffffff;stroke-linecap:square;stroke-linejoin:round;-inkscape-stroke:none"
         d="m 1155.1699,-1333.9668 c -128.5881,0 -251.93771,51.094 -342.86326,142.0195 -90.92555,90.9256 -142.01758,214.27322 -142.01758,342.86136 0,128.58814 51.09203,251.93774 142.01758,342.86328 90.92555,90.92555 214.27516,142.01953 342.86326,142.01954 128.5882,0 251.9378,-51.09399 342.8633,-142.01954 90.9255,-90.92554 142.0176,-214.27514 142.0176,-342.86328 0,-128.58814 -51.0921,-251.93576 -142.0176,-342.86136 -90.9255,-90.9255 -214.2751,-142.0195 -342.8633,-142.0195 z m 0,52.918 c 114.5741,0 224.4292,45.5034 305.4453,126.5195 81.0162,81.0161 126.5196,190.86926 126.5196,305.44336 0,114.57411 -45.5034,224.42919 -126.5196,305.44532 -81.0161,81.01612 -190.8712,126.51953 -305.4453,126.51953 -114.5741,0 -224.42917,-45.50341 -305.44529,-126.51953 -81.01613,-81.01613 -126.51953,-190.87121 -126.51953,-305.44532 0,-114.5741 45.5034,-224.42726 126.51953,-305.44336 81.01612,-81.0161 190.87119,-126.5195 305.44529,-126.5195 z"
         id="circle10266" />
    </g>
    <path
       id="path6737"
       style="fill:#ffffff;stroke:none;stroke-width:5.29167;stroke-miterlimit:4;stroke-dasharray:none"
       d="m 1484.0012,353.54423 c -5.027,-0.0341 -11.216,0.21464 -19.0475,0.63923 -15.0589,0.8163 -30.0803,2.32583 -33.383,3.35297 -8.2329,2.56041 -16.9023,10.46094 -20.1828,18.39451 -7.8105,18.89087 5.0859,41.90323 24.8766,44.39056 2.5506,0.32053 2.4992,2.88522 -0.4042,20.51431 l -3.3184,20.1477 -16.6794,4.89634 c -9.1728,2.69362 -24.0131,8.2014 -32.9801,12.2368 -8.9669,4.03539 -16.4675,7.36746 -16.6681,7.40711 -0.2005,0.0399 -3.6234,-2.96968 -7.6067,-6.68713 l -7.2426,-6.75891 1.225,-7.24089 c 3.6538,-21.61284 -13.401,-42.44218 -35.8041,-43.73168 -10.5398,-0.60665 -18.1697,2.23374 -31.9517,11.88898 -5.1836,3.63149 -8.272,5.91646 -10.5041,8.03353 v 8.3e-4 c -2.2321,2.11717 -3.6099,4.06453 -5.3724,7.02127 -6.0742,10.19046 -7.4797,19.64842 -4.5361,30.51679 4.3763,16.15844 17.0602,26.8116 33.4732,28.10859 l 8.6224,0.6811 3.3517,8.13693 3.3551,8.13735 -9.5505,9.70424 c -5.253,5.3374 -13.3495,14.46811 -17.9902,20.29255 -7.049,8.84677 -8.7874,10.47948 -10.5696,9.9166 -1.1732,-0.37046 -10.133,-2.54012 -19.9079,-4.822 l -17.7728,-4.14858 -0.4495,-5.78212 c -1.287,-16.51294 -12.3519,-28.41548 -28.4483,-30.60094 -9.595,-1.30269 -18.1054,1.27299 -25.3495,7.67459 -4.3733,3.86124 -8.262,10.07889 -17.6741,28.22694 -13.3186,25.68064 -15.236,31.1303 -14.1566,40.23898 1.4645,12.35982 7.8098,20.97303 19.0072,25.8012 12.4638,5.37405 24.9119,3.41898 34.897,-5.47917 l 5.6531,-5.03778 15.3534,12.91107 15.3535,12.91107 -3.5794,13.69258 c -3.8807,14.84379 -6.8366,32.71393 -8.0203,48.48915 l -0.7478,9.98283 -11.6116,3.91614 c -9.5174,3.20867 -12.0699,3.50018 -14.175,1.61987 -16.3368,-14.59467 -33.1273,-15.98838 -46.7163,-3.87854 -9.7961,8.72979 -11.7756,16.63549 -9.7731,39.01693 2.1421,23.94209 3.2805,28.07801 9.7055,35.27982 15.136,16.9687 42.6808,12.695 51.8614,-8.04549 l 2.6483,-5.98508 12.1595,1.49637 12.1633,1.49595 4.7566,16.26832 c 5.7069,19.51014 14.9543,41.15793 24.1694,56.58334 l 6.7585,11.31342 -2.8813,4.35583 c -17.7393,26.83373 -22.5969,32.21235 -25.9118,28.679 -1.5195,-1.6194 -16.1836,-1.48755 -21.5907,0.19443 -8.4477,2.62793 -17.9802,11.2826 -21.3197,19.35933 -3.4132,8.25525 -3.0609,20.06232 0.8439,28.37307 3.7333,7.94597 32.7212,41.14228 40.042,45.85532 17.8824,11.51247 43.0939,2.60872 50.4175,-17.80485 2.9857,-8.32211 2.6993,-19.26089 -0.673,-25.70718 -0.9913,-1.8947 -1.6495,-3.58249 -1.463,-3.74865 0.9562,-0.85214 34.6116,-19.60053 35.4016,-19.08972 l 8.4382,5.45524 c 20.599,13.80237 30.5978,19.13929 57.0537,32.20804 l 9.632,4.28403 0.04,19.14397 0.041,19.14399 -5.0609,1.74763 c -8.2195,2.83484 -16.9504,11.54654 -20.5249,20.48054 -3.5911,8.9758 -3.3495,17.1125 0.7756,25.9764 5.6871,12.2203 11.922,16.5248 30.9153,21.3463 22.8855,5.8094 29.4782,5.6304 41.3739,-1.1277 5.0781,-2.8849 7.1812,-4.9355 10.4875,-10.2306 7.8316,-12.5427 7.3136,-26.3612 -1.4639,-39.1601 l -4.5067,-6.5718 8.4074,-17.41171 8.2314,-17.05109 c -14.253,-29.41407 -33.249,-68.80295 -66.3069,-137.4963 -92.7292,-192.68885 -95.0877,-197.69312 -95.4833,-202.59944 -0.5328,-6.60905 2.361,-15.57126 6.697,-20.7442 l 3.4803,-4.1537 103.6914,-49.90049 103.6914,-49.90048 5.4194,-0.12905 c 6.748,-0.16108 15.5562,3.16975 20.3887,7.70964 3.5874,3.37028 6.0263,8.33601 98.7555,201.02484 37.0231,76.93328 57.0914,118.72324 70.9296,147.75815 1.3334,0.28413 2.4214,0.48885 3.9354,0.83067 10.7251,2.42136 20.1004,5.07944 20.8347,5.90347 0.7344,0.82401 1.1472,3.23262 0.9188,5.35311 -0.5797,5.37952 5.4768,17.5559 10.9523,22.02308 13.0489,10.6459 30.522,10.45747 42.7767,-0.46317 7.089,-6.31735 29.7157,-50.54391 30.9359,-60.46702 1.2449,-10.12262 -1.3505,-18.08126 -8.518,-26.1332 -7.0229,-7.88813 -12.1557,-10.29274 -22.9888,-10.75753 -8.5153,-0.36537 -15.2388,2.24209 -22.6618,8.79241 l -5.4729,4.82626 -14.5911,-11.81335 c -8.0241,-6.49683 -15.0682,-12.36893 -15.656,-13.05037 -0.5866,-0.68249 -0.2464,-3.81279 0.7602,-6.95674 3.2248,-10.07283 6.9737,-31.13761 8.3829,-47.10558 l 1.3687,-15.51455 12.3727,-3.9469 12.3701,-3.9452 6.6401,5.03522 c 19.4521,14.74574 44.1854,9.8449 56.0911,-11.11217 4.6502,-8.18558 5.5988,-26.06157 2.0728,-39.08059 -5.9246,-21.87511 -26.2026,-32.97159 -47.6845,-26.09561 -5.085,1.62766 -8.0194,3.62991 -13.6191,9.28165 -3.9261,3.96272 -7.5989,8.21992 -8.1626,9.46367 -0.7551,1.66598 -4.3026,1.74213 -13.4772,0.288 l -12.4543,-1.97324 -2.9359,-11.53006 c -1.615,-6.34119 -4.6929,-16.20129 -6.8402,-21.91027 -2.835,-7.53762 -3.4147,-11.0297 -2.1163,-12.75469 0.9833,-1.30651 7.6198,-7.95452 14.7471,-14.77363 l 12.9572,-12.39831 7.479,3.61147 c 19.8076,9.56744 42.7393,-2.8356 45.3814,-24.54496 0.5602,-4.60293 0.3585,-10.58561 -0.4495,-13.29563 -2.5606,-8.588 -27.9752,-50.62047 -33.416,-55.26557 -13.5699,-11.58552 -34.812,-9.71173 -46.2894,4.08065 -5.5049,6.61526 -8.5081,18.83994 -6.6355,27.02239 l 1.5084,6.582 -19.0944,6.28292 -19.0966,6.28462 -5.3591,-6.0133 c -10.4164,-11.68952 -37.0693,-34.92755 -47.4816,-41.3965 -1.3674,-0.84984 -1.2487,-4.14536 0.3743,-10.32681 1.3112,-4.99378 2.8084,-9.45839 3.3273,-9.92087 0.5191,-0.46254 4.064,-1.54615 7.8763,-2.40908 26.8177,-6.07061 37.202,-39.06295 18.8137,-59.76924 -8.8603,-9.97491 -36.2036,-23.91226 -47.5901,-24.25398 -13.6754,-0.41041 -29.9166,9.75853 -35.2423,22.06368 -4.7768,11.03701 -3.6111,25.34074 2.8945,35.50544 2.1712,3.39206 2.6503,5.4642 1.5118,6.55638 -0.9144,0.87959 -3.6458,4.0454 -6.0667,7.03878 l -4.4024,5.44371 -7.1059,-2.33772 c -19.7149,-6.46529 -31.6409,-9.28229 -55.2847,-11.47024 -3.4671,-0.81862 -4.0713,-2.07686 -9.5667,-19.97549 l -5.8655,-19.10211 6.344,-5.94321 c 8.1089,-7.59886 11.592,-13.6963 12.6244,-22.09145 1.1185,-9.09518 -1.6504,-17.24737 -8.4788,-24.96712 -7.132,-8.06381 -11.754,-10.70922 -26.8348,-10.81136 z m -14.1891,209.77623 -39.3357,18.92991 -39.3344,18.92906 -1.0871,3.10385 c -0.6559,1.87301 -0.6134,4.08784 0.1081,5.58727 1.4468,3.0063 5.9815,5.40322 8.8416,4.67501 1.1483,-0.29268 19.0906,-8.77731 39.8719,-18.85513 l 37.7846,-18.32187 0.9055,-3.38587 c 1.1847,-4.42416 -0.6327,-8.16799 -4.6507,-9.57519 z m 89.528,32.54302 -34.7478,16.69902 -34.7479,16.69944 16.6994,34.74784 16.699,34.74785 34.7479,-16.69944 34.7479,-16.69944 -16.6995,-34.74743 z m -8.0216,22.86527 9.2774,19.30422 9.2774,19.30422 -19.3043,9.27737 -19.3046,9.27737 -9.2774,-19.30421 -9.2773,-19.30422 19.3042,-9.27738 z m -6.0162,17.14895 -7.7217,3.71104 -7.722,3.71104 3.7111,7.7216 3.711,7.7216 7.7216,-3.71103 7.722,-3.71062 -3.711,-7.72202 z m -69.3569,0.0637 -7.722,3.71104 -7.7216,3.71104 5.5663,11.58261 5.5664,11.58262 7.722,-3.71104 7.7216,-3.71104 -5.5663,-11.58261 z m -4.3109,30.58731 -7.7216,3.71103 -7.7216,3.71103 3.711,7.72161 3.7106,7.7216 7.722,-3.71061 7.7216,-3.71103 -3.711,-7.72204 z m 7.422,15.44363 3.7111,7.7216 3.711,7.7216 -7.722,3.71103 -7.7216,3.71104 10.669,22.19998 10.6691,22.19997 7.7216,-3.71104 7.7216,-3.71102 -6.958,-14.47795 -6.9581,-14.47838 7.7221,-3.71103 7.7216,-3.71104 -7.4221,-15.4432 -7.4216,-15.44364 -7.7221,3.71104 z m 28.7598,59.84316 3.7111,7.72202 3.711,7.7216 7.7216,-3.71102 7.7216,-3.71104 -3.7106,-7.72161 -3.711,-7.72159 -7.7217,3.71103 z m 15.4437,-7.42164 23.1651,-11.13311 23.1653,-11.13268 -3.711,-7.7216 -3.7111,-7.72203 -23.1652,11.13311 -23.1652,11.13267 3.711,7.72203 z m 46.3304,-22.26579 3.711,7.7216 3.7107,7.72204 10.8104,-5.19546 10.8106,-5.19545 -3.7111,-7.7216 -3.711,-7.72159 -10.8101,5.19502 z m 21.6206,-10.39046 7.722,-3.71104 7.7216,-3.71104 -3.711,-7.7216 -3.7106,-7.72203 -7.7221,3.71104 -7.7216,3.71103 3.7111,7.7216 z m 7.4221,15.44319 5.2881,11.00364 5.2882,11.00321 -10.8105,5.19545 -10.8105,5.19544 3.711,7.7216 3.711,7.72204 18.5321,-8.90648 18.5322,-8.9065 -8.9993,-18.7248 -8.9987,-18.72524 -7.7221,3.71061 z m -3.6227,47.84138 -15.4436,7.42163 -15.4436,7.42207 3.711,7.72162 3.7111,7.7216 15.4436,-7.42166 15.4432,-7.42205 -3.7106,-7.72162 z m 7.4217,15.44321 3.711,7.7216 3.7111,7.72203 7.7216,-3.71104 7.722,-3.71103 -3.711,-7.7216 -3.7111,-7.72162 -7.7215,3.71062 z m 22.8657,8.02156 3.7106,7.72203 3.711,7.72159 10.8105,-5.19545 10.8106,-5.19544 -3.7111,-7.72159 -3.711,-7.72162 -10.8106,5.19502 z m -15.4436,7.42207 -7.7216,3.71104 -7.7221,3.71059 3.7111,7.72204 3.711,7.7216 7.7216,-3.71104 7.722,-3.71103 -3.711,-7.72161 z m -45.731,-16.04314 -8.9988,-18.72523 -8.9992,-18.72524 -7.7216,3.71103 -7.722,3.71062 5.2881,11.00363 5.2882,11.00364 -7.7215,3.71103 -7.7217,3.7106 3.7106,7.72204 3.7111,7.72159 15.4436,-7.42205 z m -30.8868,14.84371 -7.7217,3.71104 -7.7215,3.71103 3.7106,7.72161 3.711,7.72162 7.7216,-3.71105 7.722,-3.71061 -3.711,-7.72202 z m 7.422,15.44364 7.4217,15.44321 7.4221,15.44363 15.4436,-7.42207 15.4432,-7.42164 -3.711,-7.72203 -3.7107,-7.7216 -7.722,3.71104 -7.7216,3.71104 -3.711,-7.72204 -3.7111,-7.7216 -7.7216,3.71102 z m -14.8437,-30.88727 -5.2882,-11.0032 -5.2881,-11.00364 -7.7216,3.71104 -7.7221,3.71103 5.2882,11.00323 5.2882,11.00361 7.7216,-3.71103 z m -26.02,-14.58477 -3.711,-7.72201 -3.7106,-7.72162 -6.9499,3.33973 -6.9495,3.34013 -3.711,-7.72201 -3.7106,-7.72161 -7.7221,3.71103 -7.7216,3.71104 3.7111,7.72159 3.711,7.72162 -7.722,3.71104 -7.7216,3.71101 3.711,7.72162 3.711,7.72202 22.3927,-10.76179 z m -52.2078,6.07994 -3.7111,-7.72159 -3.711,-7.72204 -19.3042,9.27739 -19.3042,9.27736 7.4216,15.44363 7.4221,15.44363 7.7216,-3.71103 7.722,-3.71102 -3.711,-7.72162 -3.7111,-7.72201 11.5827,-5.56635 z m 129.4252,-43.18942 -7.7217,3.7106 -7.7215,3.71104 3.711,7.72202 3.7106,7.72162 7.722,-3.71104 7.7216,-3.71105 -3.711,-7.72159 z m -145.8529,-70.10673 -34.7479,16.69944 -34.7477,16.69945 16.6994,34.74784 16.6989,34.74784 34.7479,-16.69943 34.7478,-16.69945 -16.699,-34.74785 z m -8.0216,22.8657 9.2774,19.30422 9.2774,19.30422 -19.3042,9.27736 -19.3047,9.27738 -9.2774,-19.30422 -9.2773,-19.30422 19.3046,-9.27737 z m -6.0162,17.14895 -7.7217,3.71104 -7.722,3.71061 3.7111,7.72202 3.711,7.7216 7.7216,-3.71103 7.722,-3.71103 -3.711,-7.7216 z m 75.6397,88.16625 -34.7479,16.69944 -34.7478,16.69944 16.699,34.74785 16.6994,34.74742 34.7479,-16.69903 34.7478,-16.69943 -16.6994,-34.74785 z m -8.0216,22.86569 9.2774,19.30422 9.2774,19.30423 -19.3047,9.27736 -19.3042,9.27738 -9.2774,-19.30422 -9.2773,-19.30423 19.3042,-9.27736 z m -6.0163,17.14895 -7.7216,3.71103 -7.722,3.71063 3.711,7.72203 3.7111,7.7216 7.7216,-3.71103 7.722,-3.71105 -3.711,-7.72159 z m 138.1121,115.80696 c -2.0463,-4.7e-4 -4.4966,1.02281 -11.3993,4.34469 -8.8356,4.25202 -10.1744,5.15247 -11.4079,7.66863 -1.1138,2.27234 -1.0474,3.57855 0.329,6.43887 0.9498,1.97372 2.736,4.15568 3.9687,4.84721 2.1332,1.19669 2.8128,0.98117 14.0921,-4.44684 11.2793,-5.42801 11.8714,-5.82454 12.2672,-8.23821 0.2286,-1.39477 -0.362,-4.15194 -1.3118,-6.12566 -1.3765,-2.86031 -2.3546,-3.7282 -4.8254,-4.27548 -0.5985,-0.13262 -1.1397,-0.21311 -1.7126,-0.21321 z"
       inkscape:export-filename="/home/fo3cus/Dropbox/Code/covid_qr_generator/assets/new_logo2.png"
       inkscape:export-xdpi="6.0700002"
       inkscape:export-ydpi="6.0700002" />
    <path
       style="color:#000000;fill:#ffffff;stroke:none;stroke-width:5.29167;stroke-linecap:round;stroke-miterlimit:4;stroke-dasharray:none"
       d="m 1035.7636,605.98316 -1.5472,7.17476 c -6.9746,32.336 -10.6882,65.5419 -10.6882,99.16036 0,94.42754 28.4386,185.91887 80.486,263.09193 l 4.1316,6.12573 15.2017,-12.90359 -3.2975,-4.9067 c -49.5986,-73.79576 -76.6775,-161.20422 -76.6775,-251.40737 0,-31.94309 3.4976,-63.52244 10.0903,-94.31467 l 1.2464,-5.82031 z"
       id="path93804"
       inkscape:export-filename="/home/fo3cus/Dropbox/Code/covid_qr_generator/assets/new_logo2.png"
       inkscape:export-xdpi="6.0700002"
       inkscape:export-ydpi="6.0700002" />
    <g
       id="path93802"
       transform="scale(0.26458333)"
       style="fill:#ffffff;stroke:none;stroke-width:20;stroke-miterlimit:4;stroke-dasharray:none"
       inkscape:export-filename="/home/fo3cus/Dropbox/Code/covid_qr_generator/assets/new_logo2.png"
       inkscape:export-xdpi="6.0700002"
       inkscape:export-ydpi="6.0700002">
      <path
         style="color:#000000;fill:#ffffff;stroke:none;stroke-width:20;stroke-linecap:round;stroke-miterlimit:4;stroke-dasharray:none"
         d="m 7353.2168,2290.5449 -23.8594,7.8106 c 30.0039,128.1365 45.9473,260.1485 45.9473,393.8711 0,358.6869 -111.9612,705.6609 -315.7754,995.0429 l 19.1328,16.2422 c 207.5881,-293.9373 321.6445,-646.6532 321.6445,-1011.2851 0,-136.3889 -16.3265,-271.0317 -47.0898,-401.6817 z"
         id="path94425" />
      <path
         style="color:#000000;fill:#ffffff;stroke:none;stroke-width:20;stroke-linecap:round;stroke-miterlimit:4;stroke-dasharray:none"
         d="m 7371.3125,2258.3164 -25.873,8.4688 -45.6504,14.9453 5.2265,22.3242 c 29.5831,126.3393 45.2891,256.4365 45.2891,388.1719 0,353.4841 -110.3362,695.4324 -311.2149,980.6464 l -13.1523,18.6739 57.3789,48.7109 15.7656,-22.3242 c 210.5352,-298.1102 326.2246,-655.8622 326.2246,-1025.707 0,-138.3839 -16.5666,-274.9532 -47.7558,-407.4121 z"
         id="path94427" />
    </g>
    <g
       id="g92880"
       style="fill:#ffffff;stroke:none;stroke-width:5.29167;stroke-miterlimit:4;stroke-dasharray:none"
       inkscape:export-filename="/home/fo3cus/Dropbox/Code/covid_qr_generator/assets/new_logo2.png"
       inkscape:export-xdpi="6.0700002"
       inkscape:export-ydpi="6.0700002">
      <g
         aria-label="COVID QR SIGN"
         id="text13393"
         style="font-size:116.587px;line-height:1.25;font-family:'Arial Black';-inkscape-font-specification:'Arial Black, Normal';letter-spacing:13.2292px;fill:#ffffff;stroke:none;stroke-width:6.08017;stroke-miterlimit:4;stroke-dasharray:none"
         transform="matrix(0.87031511,0,0,0.87031511,194.00369,96.220876)">
        <path
           d="m 1036.397,466.90367 16.0867,-17.2815 q 7.5323,6.23139 11.1002,13.43482 3.568,7.20343 3.272,15.17445 -0.271,7.91992 -5.2102,17.98834 -5.9922,12.21498 -13.3297,18.25352 -7.3635,5.96237 -19.0655,7.1967 -11.7019,1.23434 -25.6546,-5.61036 -18.60357,-9.12625 -23.73085,-23.8793 -5.15331,-14.82922 3.72222,-32.9217 6.94498,-14.15711 16.63053,-19.42421 9.7107,-5.31821 23.4984,-3.43684 l -5.4801,22.6749 q -3.9508,-0.60655 -6.1119,-0.20829 -3.6104,0.63838 -6.4204,2.74734 -2.81,2.10896 -4.5149,5.58435 -3.86109,7.87074 0.4205,15.1706 3.1475,5.47538 13.2159,10.41459 12.4705,6.1176 18.9768,4.61712 6.4551,-1.52556 9.8148,-8.37412 3.2593,-6.64413 1.1832,-11.84757 -2.0511,-5.25455 -8.4031,-10.27284 z"
           style="font-size:116.587px;fill:#ffffff;stroke:none;stroke-width:6.08017;stroke-miterlimit:4;stroke-dasharray:none"
           id="path88648" />
        <path
           d="m 1056.5691,416.32307 q -15.9621,-12.76239 -17.7446,-28.76487 -1.7826,-16.00248 10.9087,-31.87562 13.0112,-16.27331 28.8092,-18.07358 15.7536,-1.83583 31.4933,10.74881 11.4269,9.1363 15.6704,18.87027 4.2346,9.65395 2.495,20.2164 -1.7486,10.48243 -10.4227,21.3313 -8.8164,11.02672 -18.1235,15.46569 -9.2717,4.3945 -20.4653,2.8062 -11.1936,-1.5883 -22.6205,-10.7246 z m 16.193,-20.07045 q 9.8707,7.89206 17.0986,7.69446 7.2635,-0.24206 12.3116,-6.55575 5.1903,-6.49153 3.8103,-13.42577 -1.3799,-6.93424 -12.3177,-15.6795 -9.2038,-7.35881 -16.4139,-7.00119 -7.219,0.27761 -12.3027,6.63576 -4.8703,6.09137 -3.5081,13.2301 1.3623,7.13873 11.3219,15.10189 z"
           style="font-size:116.587px;fill:#ffffff;stroke:none;stroke-width:6.08017;stroke-miterlimit:4;stroke-dasharray:none"
           id="path88650" />
        <path
           d="m 1100.4534,299.74838 20.9711,-16.98015 52.3934,34.85442 -23.4144,-58.31855 20.3516,-16.47863 28.4486,84.34756 -21.7231,17.58915 z"
           style="font-size:116.587px;fill:#ffffff;stroke:none;stroke-width:6.08017;stroke-miterlimit:4;stroke-dasharray:none"
           id="path88652" />
        <path
           d="m 1202.4406,224.33033 22.4854,-12.74238 41.1461,72.6071 -22.4854,12.74239 z"
           style="font-size:116.587px;fill:#ffffff;stroke:none;stroke-width:6.08017;stroke-miterlimit:4;stroke-dasharray:none"
           id="path88654" />
        <path
           d="m 1265.9796,190.4836 36.0154,-13.06532 q 10.6494,-3.8633 18.2266,-3.34195 7.6306,0.50192 13.8725,4.35383 6.242,3.8519 10.7699,10.32398 4.528,6.47209 7.44,14.4993 4.5622,12.57596 4.1962,20.5812 -0.332,7.93232 -3.7075,14.4859 -3.3949,6.50007 -8.665,10.16807 -7.1972,5.03321 -13.6724,7.38225 l -36.0155,13.06532 z m 30.6875,8.97255 15.5502,42.86529 5.9401,-2.15491 q 7.5991,-2.75672 10.2082,-5.58049 2.5896,-2.87728 2.8949,-7.71149 0.2858,-4.88772 -3.131,-14.30632 -4.5233,-12.46893 -10.26,-15.59576 -5.7367,-3.12684 -15.1553,0.28995 z"
           style="font-size:116.587px;fill:#ffffff;stroke:none;stroke-width:6.08017;stroke-miterlimit:4;stroke-dasharray:none"
           id="path88656" />
        <path
           d="m 1518.4276,214.68579 q 4.9037,3.2633 6.4002,4.08806 2.2443,1.20868 6.0331,2.78567 l -6.8883,14.59722 q -5.4583,-2.51224 -10.8229,-6.0512 -5.3634,-3.48204 -7.505,-5.26212 -8.465,3.8668 -21.3281,4.11876 -19.0101,0.37236 -30.1889,-9.31591 -13.2066,-11.47057 -13.6224,-32.70036 -0.4036,-20.60371 10.6998,-32.20883 11.1591,-11.66316 31.5352,-12.06228 20.7744,-0.40693 32.2624,10.52792 11.5449,10.93374 11.9518,31.7082 0.3623,18.49781 -8.5269,29.77487 z m -20.0086,-12.81772 q 2.9653,-5.58109 2.7502,-16.56594 -0.2475,-12.63543 -5.0775,-17.94994 -4.7731,-5.31564 -13.0259,-5.15398 -7.6837,0.15051 -12.3566,5.76504 -4.6728,5.61453 -4.4431,17.3393 0.2675,13.65992 5.0428,19.08938 4.7753,5.42946 12.9143,5.27004 2.6182,-0.0513 4.9417,-0.60924 -3.3055,-3.06685 -10.3609,-5.71862 l 3.8594,-9.35652 q 3.4272,0.55919 5.3233,1.43306 1.953,0.87275 7.5497,4.63492 1.3269,0.88502 2.8826,1.8225 z"
           style="font-size:116.587px;fill:#ffffff;stroke:none;stroke-width:6.08017;stroke-miterlimit:4;stroke-dasharray:none"
           id="path88658" />
        <path
           d="m 1555.3201,229.94211 16.6899,-81.76946 42.1118,8.59538 q 11.7132,2.39077 17.4947,5.66244 5.7814,3.27167 8.4585,9.51199 2.6886,6.18455 1.0948,13.99337 -1.389,6.80482 -5.3026,11.177 -3.9023,4.3164 -9.6042,6.34815 -3.6335,1.29189 -9.5289,1.42492 4.2106,2.42814 5.967,4.35536 1.1895,1.28861 3.1393,5.11454 2.0057,3.83732 2.5338,5.80434 l 7.3767,26.19857 -28.5579,-5.82892 -8.3978,-27.74329 q -1.5753,-5.37631 -3.2873,-7.23636 -2.346,-2.45428 -5.8042,-3.16012 l -2.2311,-0.45538 -6.7738,33.18746 z m 35.3061,-43.45777 10.6534,2.17446 q 1.7291,0.35292 6.921,0.2506 2.6124,0.0103 4.5954,-1.73467 2.0388,-1.73361 2.5853,-4.41092 0.8083,-3.96018 -1.2691,-6.59203 -2.0774,-2.63184 -8.9937,-4.04353 l -11.0997,-2.26554 z"
           style="font-size:116.587px;fill:#ffffff;stroke:none;stroke-width:6.08017;stroke-miterlimit:4;stroke-dasharray:none"
           id="path88660" />
        <path
           d="m 1714.0415,247.87479 22.0945,10.77917 q -2.2586,5.59131 -1.6761,9.52271 0.9634,6.37347 7.3987,10.02787 4.8017,2.72675 8.6408,1.96089 3.9168,-0.78724 5.6034,-3.75739 1.6023,-2.82164 0.3922,-6.45479 -1.2102,-3.63315 -9.0952,-10.72941 -12.8683,-11.69367 -16.0348,-20.75852 -3.216,-9.09295 1.619,-17.60738 3.1765,-5.59378 9.2053,-8.71683 6.1063,-3.14444 14.1934,-2.28357 8.1648,0.83947 19.5009,7.27683 13.9102,7.89913 18.2354,17.22917 4.4029,9.30865 -0.6203,21.38232 l -21.8404,-10.76573 q 1.9415,-5.37863 0.4838,-9.15233 -1.4081,-3.7456 -6.1604,-6.44423 -3.9107,-2.22075 -6.8465,-1.66209 -2.9078,0.50915 -4.2571,2.88527 -0.9839,1.73258 -0.1374,4.04631 0.7689,2.33512 6.0064,6.94597 12.9031,11.51705 17.3842,18.38239 4.5586,6.84395 4.703,13.27612 0.1939,6.46027 -3.1794,12.40057 -3.9636,6.97985 -11.17,10.67801 -7.2064,3.69816 -15.8796,2.83181 -8.6451,-0.91585 -19.1891,-6.90345 -18.514,-10.51342 -21.5944,-21.68973 -3.0804,-11.1763 2.2197,-22.69996 z"
           style="font-size:116.587px;fill:#ffffff;stroke:none;stroke-width:6.08017;stroke-miterlimit:4;stroke-dasharray:none"
           id="path88662" />
        <path
           d="m 1840.0323,261.22452 20.1391,16.1981 -52.3049,65.0307 -20.1391,-16.19811 z"
           style="font-size:116.587px;fill:#ffffff;stroke:none;stroke-width:6.08017;stroke-miterlimit:4;stroke-dasharray:none"
           id="path88664" />
        <path
           d="m 1882.8615,374.41203 13.0616,-11.43943 26.2545,29.97754 -26.7657,23.44146 q -13.4058,-3.46947 -21.3605,-8.23203 -7.8744,-4.75725 -15.8258,-13.83616 -9.7891,-11.17734 -12.1662,-21.58154 -2.3397,-10.36138 1.7845,-20.85957 4.1616,-10.45538 13.9257,-19.00682 10.278,-9.00152 21.5712,-11.40046 11.336,-2.43645 22.4396,2.29255 8.629,3.71798 18.0806,14.5099 9.1141,10.40649 11.7305,17.19577 2.654,6.83211 1.6343,13.70338 -0.9394,6.87659 -5.5203,13.91549 l -19.7307,-15.78905 q 2.5419,-4.2693 1.9882,-8.70321 -0.5161,-4.39108 -4.2667,-8.67359 -5.5884,-6.38093 -13.3803,-6.2917 -7.7115,0.0945 -17.3044,8.49596 -10.1923,8.92651 -11.2224,16.56359 -0.9926,7.6799 5.0084,14.53191 2.8505,3.25471 6.3806,5.3845 3.5301,2.12978 9.1379,3.95338 l 5.9098,-5.17588 z"
           style="font-size:116.587px;fill:#ffffff;stroke:none;stroke-width:6.08017;stroke-miterlimit:4;stroke-dasharray:none"
           id="path88666" />
        <path
           d="m 1976.2733,408.87871 11.3681,21.22785 -25.8642,49.49732 40.6993,-21.79572 11.4757,21.42859 -73.5698,39.39892 -11.4757,-21.4286 25.6437,-49.18551 -40.3982,21.63447 -11.4488,-21.37841 z"
           style="font-size:116.587px;fill:#ffffff;stroke:none;stroke-width:6.08017;stroke-miterlimit:4;stroke-dasharray:none"
           id="path88668" />
      </g>
      <g
         aria-label="GENERATOR"
         id="text42274"
         style="font-size:116.587px;line-height:1.25;font-family:'Arial Black';-inkscape-font-specification:'Arial Black, Normal';letter-spacing:13.2292px;fill:#ffffff;stroke:none;stroke-width:6.08017;stroke-miterlimit:4;stroke-dasharray:none"
         transform="matrix(0.87031511,0,0,0.87031511,194.00369,96.220876)">
        <path
           d="m 1138.9317,1110.3002 11.6073,-12.9126 29.6357,26.6397 -23.7855,26.4604 q -13.7235,-1.8493 -22.1885,-5.6312 -8.3846,-3.7863 -17.36,-11.8543 -11.0499,-9.9328 -14.6484,-19.9802 -3.5561,-10.0092 -0.7108,-20.9237 2.8877,-10.8763 11.5647,-20.5291 9.1336,-10.1608 20.061,-13.8868 10.9654,-3.7683 22.5529,-0.3944 9.0102,2.6646 19.6791,12.2549 10.2878,9.2478 13.6937,15.6774 3.4482,6.4677 3.2535,13.4115 -0.1143,6.9395 -3.8249,14.4736 l -21.4695,-13.3286 q 2.0156,-4.5415 0.9382,-8.878 -1.035,-4.2984 -5.2687,-8.1041 -6.3082,-5.6704 -14.034,-4.6545 -7.6455,1.0117 -16.1702,10.4951 -9.0575,10.0761 -9.1713,17.7815 -0.072,7.7435 6.7023,13.8326 3.2176,2.8923 6.9761,4.5868 3.7585,1.6945 9.5434,2.8377 l 5.2519,-5.8425 z"
           style="font-size:116.587px;fill:#ffffff;stroke:none;stroke-width:6.08017;stroke-miterlimit:4;stroke-dasharray:none"
           id="path92622" />
        <path
           d="m 1215.263,1104.6911 58.9953,35.9958 -9.2806,15.2105 -36.9329,-22.5344 -6.9085,11.3228 34.26,20.9037 -8.8655,14.5301 -34.2601,-20.9037 -8.569,14.0442 38.002,23.1868 -9.844,16.1338 -60.0645,-36.6481 z"
           style="font-size:116.587px;fill:#ffffff;stroke:none;stroke-width:6.08017;stroke-miterlimit:4;stroke-dasharray:none"
           id="path92624" />
        <path
           d="m 1286.0789,1146.9262 22.506,8.5638 12.9504,54.3252 16.4191,-43.1497 22.7188,8.6448 -29.6799,77.9994 -22.7187,-8.6448 -12.9123,-53.9453 -16.2976,42.8305 -22.6656,-8.6245 z"
           style="font-size:116.587px;fill:#ffffff;stroke:none;stroke-width:6.08017;stroke-miterlimit:4;stroke-dasharray:none"
           id="path92626" />
        <path
           d="m 1375.3866,1178.8006 68.0023,12.3224 -3.177,17.5327 -42.5715,-7.7142 -2.365,13.0515 39.4906,7.1559 -3.0349,16.7485 -39.4906,-7.1559 -2.9334,16.1884 43.8038,7.9374 -3.3699,18.597 -69.2346,-12.5457 z"
           style="font-size:116.587px;fill:#ffffff;stroke:none;stroke-width:6.08017;stroke-miterlimit:4;stroke-dasharray:none"
           id="path92628" />
        <path
           d="m 1457.251,1275.9183 0.053,-83.4553 42.98,0.028 q 11.9547,0.01 18.2723,2.0611 6.3177,2.0534 10.1851,7.6347 3.8675,5.5245 3.8624,13.4943 0,6.9451 -2.9679,12.0097 -2.9634,5.0077 -8.1458,8.1354 -3.303,1.9903 -9.0535,3.296 4.6101,1.54 6.7154,3.0784 1.4226,1.0256 4.096,4.386 2.7303,3.3604 3.64,5.1827 l 12.4516,24.2021 -29.1468,-0.019 -13.76,-25.5122 q -2.6155,-4.9544 -4.6639,-6.4358 -2.7882,-1.9373 -6.3177,-1.9396 h -2.2771 l -0.022,33.8717 z m 25.9337,-49.624 10.8731,0.01 q 1.7647,0 6.832,-1.1342 2.562,-0.5107 4.1574,-2.616 1.6522,-2.1052 1.6539,-4.8377 0,-4.0419 -2.5577,-6.2067 -2.5603,-2.1649 -9.6193,-2.1694 l -11.3285,-0.01 z"
           style="font-size:116.587px;fill:#ffffff;stroke:none;stroke-width:6.08017;stroke-miterlimit:4;stroke-dasharray:none"
           id="path92630" />
        <path
           d="m 1608.886,1250.2975 -28.8987,5.2651 -1.5071,14.2777 -25.9304,4.7244 15.9002,-87.7261 27.6666,-5.0406 45.8176,76.4815 -26.5465,4.8366 z m -8.5551,-16.7844 -14.4502,-27.8618 -3.6395,31.1576 z"
           style="font-size:116.587px;fill:#ffffff;stroke:none;stroke-width:6.08017;stroke-miterlimit:4;stroke-dasharray:none"
           id="path92632" />
        <path
           d="m 1620.6876,1177.2487 73.6387,-26.8727 7.0646,19.359 -24.7067,9.0161 21.545,59.0393 -24.2254,8.8405 -21.545,-59.0394 -24.7066,9.0161 z"
           style="font-size:116.587px;fill:#ffffff;stroke:none;stroke-width:6.08017;stroke-miterlimit:4;stroke-dasharray:none"
           id="path92634" />
        <path
           d="m 1718.3836,1185.682 q -10.2801,-17.6631 -6.1671,-33.2303 4.1131,-15.5673 21.6778,-25.7902 18.0075,-10.4806 33.3904,-6.4578 15.3543,3.9735 25.4913,21.3906 7.3593,12.6446 7.8037,23.254 0.465,10.5316 -4.9695,19.7543 -5.4139,9.1448 -17.4189,16.1319 -12.2018,7.1016 -22.4837,7.8823 -10.2327,0.7521 -20.0987,-4.769 -9.8659,-5.5212 -17.2253,-18.1658 z m 22.3453,-12.8735 q 6.3571,10.9226 13.1692,13.347 6.8613,2.3957 13.8478,-1.6705 7.1833,-4.1808 8.399,-11.1457 1.2157,-6.965 -5.8287,-19.0684 -5.9275,-10.1845 -12.7808,-12.4532 -6.8326,-2.3465 -13.8683,1.7483 -6.7406,3.9231 -8.0466,11.0723 -1.306,7.1493 5.1084,18.1702 z"
           style="font-size:116.587px;fill:#ffffff;stroke:none;stroke-width:6.08017;stroke-miterlimit:4;stroke-dasharray:none"
           id="path92636" />
        <path
           d="m 1836.2511,1161.6636 -54.7425,-62.9925 32.4416,-28.1927 q 9.0235,-7.8417 15.1373,-10.4397 6.1139,-2.598 12.6952,-0.9263 6.544,1.6288 11.7718,7.6444 4.5557,5.2423 5.6447,11.0082 1.0516,5.7231 -0.8048,11.4844 -1.1852,3.6697 -4.6662,8.4295 4.4887,-1.8645 7.0867,-2.086 1.7464,-0.1601 5.9691,0.6201 4.2656,0.7428 6.1481,1.5203 l 25.2803,10.084 -22.0001,19.1188 -27.1275,-10.2134 q -5.2252,-2.0206 -7.743,-1.7935 -3.3751,0.3687 -6.0392,2.6839 l -1.7187,1.4937 22.2181,25.5665 z m -13.0108,-54.4592 8.2071,-7.1322 q 1.332,-1.1576 4.4094,-5.3404 1.5976,-2.0671 1.4191,-4.7025 -0.1356,-2.6727 -1.928,-4.7352 -2.6512,-3.0508 -6.0038,-3.0033 -3.3526,0.047 -8.6807,4.6779 l -8.5508,7.4309 z"
           style="font-size:116.587px;fill:#ffffff;stroke:none;stroke-width:6.08017;stroke-miterlimit:4;stroke-dasharray:none"
           id="path92638" />
      </g>
    </g>
    <path
       id="path1450"
       style="fill:#ffffff;stroke:none;stroke-width:5.29167;stroke-miterlimit:4;stroke-dasharray:none"
       d="m 2623.234,353.54423 c -5.027,-0.0341 -11.216,0.21464 -19.0475,0.63923 -15.0589,0.8163 -30.0803,2.32583 -33.383,3.35297 -8.2329,2.56041 -16.9023,10.46094 -20.1828,18.39451 -7.8105,18.89087 5.0859,41.90323 24.8766,44.39056 2.5506,0.32053 2.4992,2.88522 -0.4042,20.51431 l -3.3184,20.1477 -16.6794,4.89634 c -9.1728,2.69362 -24.0131,8.2014 -32.9801,12.2368 -8.9669,4.03539 -16.4675,7.36746 -16.6681,7.40711 -0.2005,0.0399 -3.6234,-2.96968 -7.6067,-6.68713 l -7.2426,-6.75891 1.225,-7.24089 c 3.6538,-21.61284 -13.401,-42.44218 -35.8041,-43.73168 -10.5398,-0.60665 -18.1697,2.23374 -31.9517,11.88898 -5.1836,3.63149 -8.272,5.91646 -10.5041,8.03353 v 8.3e-4 c -2.2321,2.11717 -3.6099,4.06453 -5.3724,7.02127 -6.0742,10.19046 -7.4797,19.64842 -4.5361,30.51679 4.3763,16.15844 17.0602,26.8116 33.4732,28.10859 l 8.6224,0.6811 3.3517,8.13693 3.3551,8.13735 -9.5505,9.70424 c -5.253,5.3374 -13.3495,14.46811 -17.9902,20.29255 -7.049,8.84677 -8.7874,10.47948 -10.5696,9.9166 -1.1732,-0.37046 -10.133,-2.54012 -19.9079,-4.822 l -17.7728,-4.14858 -0.4495,-5.78212 c -1.287,-16.51294 -12.3519,-28.41548 -28.4483,-30.60094 -9.595,-1.30269 -18.1054,1.27299 -25.3495,7.67459 -4.3733,3.86124 -8.262,10.07889 -17.6741,28.22694 -13.3186,25.68064 -15.236,31.1303 -14.1566,40.23898 1.4645,12.35982 7.8098,20.97303 19.0072,25.8012 12.4638,5.37405 24.9119,3.41898 34.897,-5.47917 l 5.6531,-5.03778 15.3534,12.91107 15.3535,12.91107 -3.5794,13.69258 c -3.8807,14.84379 -6.8366,32.71393 -8.0203,48.48915 l -0.7478,9.98283 -11.6116,3.91614 c -9.5174,3.20867 -12.0699,3.50018 -14.175,1.61987 -16.3368,-14.59467 -33.1273,-15.98838 -46.7163,-3.87854 -9.7961,8.72979 -11.7756,16.63549 -9.7731,39.01693 2.1421,23.94209 3.2805,28.07801 9.7055,35.27982 15.136,16.9687 42.6808,12.695 51.8614,-8.04549 l 2.6483,-5.98508 12.1595,1.49637 12.1633,1.49595 4.7566,16.26832 c 5.7069,19.51014 14.9543,41.15793 24.1694,56.58334 l 6.7585,11.31342 -2.8813,4.35583 c -17.7393,26.83373 -22.5969,32.21235 -25.9118,28.679 -1.5195,-1.6194 -16.1836,-1.48755 -21.5907,0.19443 -8.4477,2.62793 -17.9802,11.2826 -21.3197,19.35933 -3.4132,8.25525 -3.0609,20.06232 0.8439,28.37307 3.7333,7.94597 32.7212,41.14228 40.042,45.85532 17.8824,11.51247 43.0939,2.60872 50.4175,-17.80485 2.9857,-8.32211 2.6993,-19.26089 -0.673,-25.70718 -0.9913,-1.8947 -1.6495,-3.58249 -1.463,-3.74865 0.9562,-0.85214 34.6116,-19.60053 35.4016,-19.08972 l 8.4382,5.45524 c 20.599,13.80237 30.5978,19.13929 57.0537,32.20804 l 9.632,4.28403 0.04,19.14397 0.041,19.14399 -5.0609,1.74763 c -8.2195,2.83484 -16.9504,11.54654 -20.5249,20.48054 -3.5911,8.9758 -3.3495,17.1125 0.7756,25.9764 5.6871,12.2203 11.922,16.5248 30.9153,21.3463 22.8855,5.8094 29.4782,5.6304 41.3739,-1.1277 5.0781,-2.8849 7.1812,-4.9355 10.4875,-10.2306 7.8316,-12.5427 7.3136,-26.3612 -1.4639,-39.1601 l -4.5067,-6.5718 8.4074,-17.41171 8.2314,-17.05109 c -14.253,-29.41407 -33.249,-68.80295 -66.3069,-137.4963 -92.7292,-192.68885 -95.0877,-197.69312 -95.4833,-202.59944 -0.5328,-6.60905 2.361,-15.57126 6.697,-20.7442 l 3.4803,-4.1537 103.6914,-49.90049 103.6914,-49.90048 5.4194,-0.12905 c 6.748,-0.16108 15.5562,3.16975 20.3887,7.70964 3.5874,3.37028 6.0263,8.33601 98.7555,201.02484 37.0231,76.93328 57.0914,118.72324 70.9296,147.75815 1.3334,0.28413 2.4214,0.48885 3.9354,0.83067 10.7251,2.42136 20.1004,5.07944 20.8347,5.90347 0.7344,0.82401 1.1472,3.23262 0.9188,5.35311 -0.5797,5.37952 5.4768,17.5559 10.9523,22.02308 13.0489,10.6459 30.522,10.45747 42.7767,-0.46317 7.089,-6.31735 29.7157,-50.54391 30.9359,-60.46702 1.2449,-10.12262 -1.3505,-18.08126 -8.518,-26.1332 -7.0229,-7.88813 -12.1557,-10.29274 -22.9888,-10.75753 -8.5153,-0.36537 -15.2388,2.24209 -22.6618,8.79241 l -5.4729,4.82626 -14.5911,-11.81335 c -8.0241,-6.49683 -15.0682,-12.36893 -15.656,-13.05037 -0.5866,-0.68249 -0.2464,-3.81279 0.7602,-6.95674 3.2248,-10.07283 6.9737,-31.13761 8.3829,-47.10558 l 1.3687,-15.51455 12.3727,-3.9469 12.3701,-3.9452 6.6401,5.03522 c 19.4521,14.74574 44.1854,9.8449 56.0911,-11.11217 4.6502,-8.18558 5.5988,-26.06157 2.0728,-39.08059 -5.9246,-21.87511 -26.2026,-32.97159 -47.6845,-26.09561 -5.085,1.62766 -8.0194,3.62991 -13.6191,9.28165 -3.9261,3.96272 -7.5989,8.21992 -8.1626,9.46367 -0.7551,1.66598 -4.3026,1.74213 -13.4772,0.288 l -12.4543,-1.97324 -2.9359,-11.53006 c -1.615,-6.34119 -4.6929,-16.20129 -6.8402,-21.91027 -2.835,-7.53762 -3.4147,-11.0297 -2.1163,-12.75469 0.9833,-1.30651 7.6198,-7.95452 14.7471,-14.77363 l 12.9572,-12.39831 7.479,3.61147 c 19.8076,9.56744 42.7393,-2.8356 45.3814,-24.54496 0.5602,-4.60293 0.3585,-10.58561 -0.4495,-13.29563 -2.5606,-8.588 -27.9752,-50.62047 -33.416,-55.26557 -13.5699,-11.58552 -34.812,-9.71173 -46.2894,4.08065 -5.5049,6.61526 -8.5081,18.83994 -6.6355,27.02239 l 1.5084,6.582 -19.0944,6.28292 -19.0966,6.28462 -5.3591,-6.0133 c -10.4164,-11.68952 -37.0693,-34.92755 -47.4816,-41.3965 -1.3674,-0.84984 -1.2487,-4.14536 0.3743,-10.32681 1.3112,-4.99378 2.8084,-9.45839 3.3273,-9.92087 0.5191,-0.46254 4.064,-1.54615 7.8763,-2.40908 26.8177,-6.07061 37.202,-39.06295 18.8137,-59.76924 -8.8603,-9.97491 -36.2036,-23.91226 -47.5901,-24.25398 -13.6754,-0.41041 -29.9166,9.75853 -35.2423,22.06368 -4.7768,11.03701 -3.6111,25.34074 2.8945,35.50544 2.1712,3.39206 2.6503,5.4642 1.5118,6.55638 -0.9144,0.87959 -3.6458,4.0454 -6.0667,7.03878 l -4.4024,5.44371 -7.1059,-2.33772 c -19.7149,-6.46529 -31.6409,-9.28229 -55.2847,-11.47024 -3.4671,-0.81862 -4.0713,-2.07686 -9.5667,-19.97549 l -5.8655,-19.10211 6.344,-5.94321 c 8.1089,-7.59886 11.592,-13.6963 12.6244,-22.09145 1.1185,-9.09518 -1.6504,-17.24737 -8.4788,-24.96712 -7.132,-8.06381 -11.754,-10.70922 -26.8348,-10.81136 z m -14.1891,209.77623 -39.3357,18.92991 -39.3344,18.92906 -1.0871,3.10385 c -0.6559,1.87301 -0.6134,4.08784 0.1081,5.58727 1.4468,3.0063 5.9815,5.40322 8.8416,4.67501 1.1483,-0.29268 19.0906,-8.77731 39.8719,-18.85513 l 37.7846,-18.32187 0.9055,-3.38587 c 1.1847,-4.42416 -0.6327,-8.16799 -4.6507,-9.57519 z m 89.528,32.54302 -34.7478,16.69902 -34.7479,16.69944 16.6994,34.74784 16.699,34.74785 34.7479,-16.69944 34.7479,-16.69944 -16.6995,-34.74743 z m -8.0216,22.86527 9.2774,19.30422 9.2774,19.30422 -19.3043,9.27737 -19.3046,9.27737 -9.2774,-19.30421 -9.2773,-19.30422 19.3042,-9.27738 z m -6.0162,17.14895 -7.7217,3.71104 -7.722,3.71104 3.7111,7.7216 3.711,7.7216 7.7216,-3.71103 7.722,-3.71062 -3.711,-7.72202 z m -69.3569,0.0637 -7.722,3.71104 -7.7216,3.71104 5.5663,11.58261 5.5664,11.58262 7.722,-3.71104 7.7216,-3.71104 -5.5663,-11.58261 z m -4.3109,30.58731 -7.7216,3.71103 -7.7216,3.71103 3.711,7.72161 3.7106,7.7216 7.722,-3.71061 7.7216,-3.71103 -3.711,-7.72204 z m 7.422,15.44363 3.7111,7.7216 3.711,7.7216 -7.722,3.71103 -7.7216,3.71104 10.669,22.19998 10.6691,22.19997 7.7216,-3.71104 7.7216,-3.71102 -6.958,-14.47795 -6.9581,-14.47838 7.7221,-3.71103 7.7216,-3.71104 -7.4221,-15.4432 -7.4216,-15.44364 -7.7221,3.71104 z m 28.7598,59.84316 3.7111,7.72202 3.711,7.7216 7.7216,-3.71102 7.7216,-3.71104 -3.7106,-7.72161 -3.711,-7.72159 -7.7217,3.71103 z m 15.4437,-7.42164 23.1651,-11.13311 23.1653,-11.13268 -3.711,-7.7216 -3.7111,-7.72203 -23.1652,11.13311 -23.1652,11.13267 3.711,7.72203 z m 46.3304,-22.26579 3.711,7.7216 3.7107,7.72204 10.8104,-5.19546 10.8106,-5.19545 -3.7111,-7.7216 -3.711,-7.72159 -10.8101,5.19502 z m 21.6206,-10.39046 7.722,-3.71104 7.7216,-3.71104 -3.711,-7.7216 -3.7106,-7.72203 -7.7221,3.71104 -7.7216,3.71103 3.7111,7.7216 z m 7.4221,15.44319 5.2881,11.00364 5.2882,11.00321 -10.8105,5.19545 -10.8105,5.19544 3.711,7.7216 3.711,7.72204 18.5321,-8.90648 18.5322,-8.9065 -8.9993,-18.7248 -8.9987,-18.72524 -7.7221,3.71061 z m -3.6227,47.84138 -15.4436,7.42163 -15.4436,7.42207 3.711,7.72162 3.7111,7.7216 15.4436,-7.42166 15.4432,-7.42205 -3.7106,-7.72162 z m 7.4217,15.44321 3.711,7.7216 3.7111,7.72203 7.7216,-3.71104 7.722,-3.71103 -3.711,-7.7216 -3.7111,-7.72162 -7.7215,3.71062 z m 22.8657,8.02156 3.7106,7.72203 3.711,7.72159 10.8105,-5.19545 10.8106,-5.19544 -3.7111,-7.72159 -3.711,-7.72162 -10.8106,5.19502 z m -15.4436,7.42207 -7.7216,3.71104 -7.7221,3.71059 3.7111,7.72204 3.711,7.7216 7.7216,-3.71104 7.722,-3.71103 -3.711,-7.72161 z m -45.731,-16.04314 -8.9988,-18.72523 -8.9992,-18.72524 -7.7216,3.71103 -7.722,3.71062 5.2881,11.00363 5.2882,11.00364 -7.7215,3.71103 -7.7217,3.7106 3.7106,7.72204 3.7111,7.72159 15.4436,-7.42205 z m -30.8868,14.84371 -7.7217,3.71104 -7.7215,3.71103 3.7106,7.72161 3.711,7.72162 7.7216,-3.71105 7.722,-3.71061 -3.711,-7.72202 z m 7.422,15.44364 7.4217,15.44321 7.4221,15.44363 15.4436,-7.42207 15.4432,-7.42164 -3.711,-7.72203 -3.7107,-7.7216 -7.722,3.71104 -7.7216,3.71104 -3.711,-7.72204 -3.7111,-7.7216 -7.7216,3.71102 z m -14.8437,-30.88727 -5.2882,-11.0032 -5.2881,-11.00364 -7.7216,3.71104 -7.7221,3.71103 5.2882,11.00323 5.2882,11.00361 7.7216,-3.71103 z m -26.02,-14.58477 -3.711,-7.72201 -3.7106,-7.72162 -6.9499,3.33973 -6.9495,3.34013 -3.711,-7.72201 -3.7106,-7.72161 -7.7221,3.71103 -7.7216,3.71104 3.7111,7.72159 3.711,7.72162 -7.722,3.71104 -7.7216,3.71101 3.711,7.72162 3.711,7.72202 22.3927,-10.76179 z m -52.2078,6.07994 -3.7111,-7.72159 -3.711,-7.72204 -19.3042,9.27739 -19.3042,9.27736 7.4216,15.44363 7.4221,15.44363 7.7216,-3.71103 7.722,-3.71102 -3.711,-7.72162 -3.7111,-7.72201 11.5827,-5.56635 z m 129.4252,-43.18942 -7.7217,3.7106 -7.7215,3.71104 3.711,7.72202 3.7106,7.72162 7.722,-3.71104 7.7216,-3.71105 -3.711,-7.72159 z m -145.8529,-70.10673 -34.7479,16.69944 -34.7477,16.69945 16.6994,34.74784 16.6989,34.74784 34.7479,-16.69943 34.7478,-16.69945 -16.699,-34.74785 z m -8.0216,22.8657 9.2774,19.30422 9.2774,19.30422 -19.3042,9.27736 -19.3047,9.27738 -9.2774,-19.30422 -9.2773,-19.30422 19.3046,-9.27737 z m -6.0162,17.14895 -7.7217,3.71104 -7.722,3.71061 3.7111,7.72202 3.711,7.7216 7.7216,-3.71103 7.722,-3.71103 -3.711,-7.7216 z m 75.6397,88.16625 -34.7479,16.69944 -34.7478,16.69944 16.699,34.74785 16.6994,34.74742 34.7479,-16.69903 34.7478,-16.69943 -16.6994,-34.74785 z m -8.0216,22.86569 9.2774,19.30422 9.2774,19.30423 -19.3047,9.27736 -19.3042,9.27738 -9.2774,-19.30422 -9.2773,-19.30423 19.3042,-9.27736 z m -6.0163,17.14895 -7.7216,3.71103 -7.722,3.71063 3.711,7.72203 3.7111,7.7216 7.7216,-3.71103 7.722,-3.71105 -3.711,-7.72159 z m 138.1121,115.80696 c -2.0463,-4.7e-4 -4.4966,1.02281 -11.3993,4.34469 -8.8356,4.25202 -10.1744,5.15247 -11.4079,7.66863 -1.1138,2.27234 -1.0474,3.57855 0.329,6.43887 0.9498,1.97372 2.736,4.15568 3.9687,4.84721 2.1332,1.19669 2.8128,0.98117 14.0921,-4.44684 11.2793,-5.42801 11.8714,-5.82454 12.2672,-8.23821 0.2286,-1.39477 -0.362,-4.15194 -1.3118,-6.12566 -1.3765,-2.86031 -2.3546,-3.7282 -4.8254,-4.27548 -0.5985,-0.13262 -1.1397,-0.21311 -1.7126,-0.21321 z"
       inkscape:export-filename="/home/fo3cus/Dropbox/Code/covid_qr_generator/assets/logo_icon.png"
       inkscape:export-xdpi="6.0700002"
       inkscape:export-ydpi="6.0700002" />
  </g>
</svg>
